<svg width="2372" height="1198" viewBox="0 0 2372 1198" fill="none" xmlns="http://www.w3.org/2000/svg">
<g clip-path="url(#clip0_2072_251)">
<rect width="2372" height="1198" fill="white"/>
<rect x="440.5" y="179.5" width="451" height="924" fill="#F8F7F7" stroke="#ACACAC"/>
<rect x="960.5" y="179.5" width="451" height="924" fill="#F8F7F7" stroke="#ACACAC"/>
<rect x="1486.5" y="179.5" width="451" height="924" fill="#F8F7F7" stroke="#ACACAC"/>
<g filter="url(#filter0_dd_2072_251)">
<rect width="2372" height="55" rx="4" fill="black"/>
<path d="M17.1477 30V18.3636H19.2557V28.233H24.3807V30H17.1477ZM29.9261 30.1705C29.0739 30.1705 28.3352 29.983 27.7102 29.608C27.0852 29.233 26.6004 28.7083 26.2557 28.0341C25.9148 27.3598 25.7443 26.572 25.7443 25.6705C25.7443 24.7689 25.9148 23.9792 26.2557 23.3011C26.6004 22.6231 27.0852 22.0966 27.7102 21.7216C28.3352 21.3466 29.0739 21.1591 29.9261 21.1591C30.7784 21.1591 31.517 21.3466 32.142 21.7216C32.767 22.0966 33.25 22.6231 33.5909 23.3011C33.9356 23.9792 34.108 24.7689 34.108 25.6705C34.108 26.572 33.9356 27.3598 33.5909 28.0341C33.25 28.7083 32.767 29.233 32.142 29.608C31.517 29.983 30.7784 30.1705 29.9261 30.1705ZM29.9375 28.5227C30.3996 28.5227 30.786 28.3958 31.0966 28.142C31.4072 27.8845 31.6383 27.5398 31.7898 27.108C31.9451 26.6761 32.0227 26.1951 32.0227 25.6648C32.0227 25.1307 31.9451 24.6477 31.7898 24.2159C31.6383 23.7803 31.4072 23.4337 31.0966 23.1761C30.786 22.9186 30.3996 22.7898 29.9375 22.7898C29.464 22.7898 29.0701 22.9186 28.7557 23.1761C28.4451 23.4337 28.2121 23.7803 28.0568 24.2159C27.9053 24.6477 27.8295 25.1307 27.8295 25.6648C27.8295 26.1951 27.9053 26.6761 28.0568 27.108C28.2121 27.5398 28.4451 27.8845 28.7557 28.142C29.0701 28.3958 29.464 28.5227 29.9375 28.5227ZM41.1435 24.3068V26H35.9048V24.3068H41.1435ZM43.3977 30V18.3636H50.8523V20.1307H45.5057V23.2898H50.3409V25.0568H45.5057V30H43.3977ZM52.6818 30V21.2727H54.7386V30H52.6818ZM53.7159 20.0341C53.3902 20.0341 53.1098 19.9261 52.875 19.7102C52.6402 19.4905 52.5227 19.2273 52.5227 18.9205C52.5227 18.6098 52.6402 18.3466 52.875 18.1307C53.1098 17.911 53.3902 17.8011 53.7159 17.8011C54.0455 17.8011 54.3258 17.911 54.5568 18.1307C54.7917 18.3466 54.9091 18.6098 54.9091 18.9205C54.9091 19.2273 54.7917 19.4905 54.5568 19.7102C54.3258 19.9261 54.0455 20.0341 53.7159 20.0341ZM60.9134 30V18.3636H65.277C66.1709 18.3636 66.9209 18.5303 67.527 18.8636C68.1368 19.197 68.5971 19.6553 68.9077 20.2386C69.2221 20.8182 69.3793 21.4773 69.3793 22.2159C69.3793 22.9621 69.2221 23.625 68.9077 24.2045C68.5933 24.7841 68.1293 25.2405 67.5156 25.5739C66.902 25.9034 66.1463 26.0682 65.2486 26.0682H62.3565V24.3352H64.9645C65.4872 24.3352 65.9152 24.2443 66.2486 24.0625C66.5819 23.8807 66.8281 23.6307 66.9872 23.3125C67.1501 22.9943 67.2315 22.6288 67.2315 22.2159C67.2315 21.803 67.1501 21.4394 66.9872 21.125C66.8281 20.8106 66.58 20.5663 66.2429 20.392C65.9096 20.214 65.4796 20.125 64.9531 20.125H63.0213V30H60.9134ZM71.1193 30V21.2727H73.1136V22.7273H73.2045C73.3636 22.2235 73.6364 21.8352 74.0227 21.5625C74.4129 21.286 74.858 21.1477 75.358 21.1477C75.4716 21.1477 75.5985 21.1534 75.7386 21.1648C75.8826 21.1723 76.0019 21.1856 76.0966 21.2045V23.0966C76.0095 23.0663 75.8712 23.0398 75.6818 23.017C75.4962 22.9905 75.3163 22.9773 75.142 22.9773C74.767 22.9773 74.4299 23.0587 74.1307 23.2216C73.8352 23.3807 73.6023 23.6023 73.4318 23.8864C73.2614 24.1705 73.1761 24.4981 73.1761 24.8693V30H71.1193ZM80.9105 30.1705C80.0582 30.1705 79.3196 29.983 78.6946 29.608C78.0696 29.233 77.5848 28.7083 77.2401 28.0341C76.8991 27.3598 76.7287 26.572 76.7287 25.6705C76.7287 24.7689 76.8991 23.9792 77.2401 23.3011C77.5848 22.6231 78.0696 22.0966 78.6946 21.7216C79.3196 21.3466 80.0582 21.1591 80.9105 21.1591C81.7628 21.1591 82.5014 21.3466 83.1264 21.7216C83.7514 22.0966 84.2344 22.6231 84.5753 23.3011C84.92 23.9792 85.0923 24.7689 85.0923 25.6705C85.0923 26.572 84.92 27.3598 84.5753 28.0341C84.2344 28.7083 83.7514 29.233 83.1264 29.608C82.5014 29.983 81.7628 30.1705 80.9105 30.1705ZM80.9219 28.5227C81.384 28.5227 81.7704 28.3958 82.081 28.142C82.3916 27.8845 82.6226 27.5398 82.7741 27.108C82.9295 26.6761 83.0071 26.1951 83.0071 25.6648C83.0071 25.1307 82.9295 24.6477 82.7741 24.2159C82.6226 23.7803 82.3916 23.4337 82.081 23.1761C81.7704 22.9186 81.384 22.7898 80.9219 22.7898C80.4484 22.7898 80.0545 22.9186 79.7401 23.1761C79.4295 23.4337 79.1965 23.7803 79.0412 24.2159C78.8897 24.6477 78.8139 25.1307 78.8139 25.6648C78.8139 26.1951 78.8897 26.6761 79.0412 27.108C79.1965 27.5398 79.4295 27.8845 79.7401 28.142C80.0545 28.3958 80.4484 28.5227 80.9219 28.5227ZM91.196 21.2727V22.8636H86.179V21.2727H91.196ZM87.4176 19.1818H89.4744V27.375C89.4744 27.6515 89.5161 27.8636 89.5994 28.0114C89.6866 28.1553 89.8002 28.2538 89.9403 28.3068C90.0805 28.3598 90.2358 28.3864 90.4062 28.3864C90.535 28.3864 90.6525 28.3769 90.7585 28.358C90.8684 28.339 90.9517 28.322 91.0085 28.3068L91.3551 29.9148C91.2453 29.9527 91.0881 29.9943 90.8835 30.0398C90.6828 30.0852 90.4366 30.1117 90.1449 30.1193C89.6297 30.1345 89.1657 30.0568 88.7528 29.8864C88.34 29.7121 88.0123 29.4432 87.7699 29.0795C87.5313 28.7159 87.4138 28.2614 87.4176 27.7159V19.1818ZM96.6293 30.1705C95.777 30.1705 95.0384 29.983 94.4134 29.608C93.7884 29.233 93.3035 28.7083 92.9588 28.0341C92.6179 27.3598 92.4474 26.572 92.4474 25.6705C92.4474 24.7689 92.6179 23.9792 92.9588 23.3011C93.3035 22.6231 93.7884 22.0966 94.4134 21.7216C95.0384 21.3466 95.777 21.1591 96.6293 21.1591C97.4815 21.1591 98.2202 21.3466 98.8452 21.7216C99.4702 22.0966 99.9531 22.6231 100.294 23.3011C100.639 23.9792 100.811 24.7689 100.811 25.6705C100.811 26.572 100.639 27.3598 100.294 28.0341C99.9531 28.7083 99.4702 29.233 98.8452 29.608C98.2202 29.983 97.4815 30.1705 96.6293 30.1705ZM96.6406 28.5227C97.1027 28.5227 97.4891 28.3958 97.7997 28.142C98.1103 27.8845 98.3414 27.5398 98.4929 27.108C98.6482 26.6761 98.7259 26.1951 98.7259 25.6648C98.7259 25.1307 98.6482 24.6477 98.4929 24.2159C98.3414 23.7803 98.1103 23.4337 97.7997 23.1761C97.4891 22.9186 97.1027 22.7898 96.6406 22.7898C96.1671 22.7898 95.7732 22.9186 95.4588 23.1761C95.1482 23.4337 94.9152 23.7803 94.7599 24.2159C94.6084 24.6477 94.5327 25.1307 94.5327 25.6648C94.5327 26.1951 94.6084 26.6761 94.7599 27.108C94.9152 27.5398 95.1482 27.8845 95.4588 28.142C95.7732 28.3958 96.1671 28.5227 96.6406 28.5227ZM106.915 21.2727V22.8636H101.898V21.2727H106.915ZM103.136 19.1818H105.193V27.375C105.193 27.6515 105.235 27.8636 105.318 28.0114C105.405 28.1553 105.519 28.2538 105.659 28.3068C105.799 28.3598 105.955 28.3864 106.125 28.3864C106.254 28.3864 106.371 28.3769 106.477 28.358C106.587 28.339 106.67 28.322 106.727 28.3068L107.074 29.9148C106.964 29.9527 106.807 29.9943 106.602 30.0398C106.402 30.0852 106.155 30.1117 105.864 30.1193C105.348 30.1345 104.884 30.0568 104.472 29.8864C104.059 29.7121 103.731 29.4432 103.489 29.0795C103.25 28.7159 103.133 28.2614 103.136 27.7159V19.1818ZM109.913 33.2727C109.633 33.2727 109.374 33.25 109.135 33.2045C108.9 33.1629 108.713 33.1136 108.572 33.0568L109.05 31.4545C109.349 31.5417 109.616 31.5833 109.851 31.5795C110.086 31.5758 110.292 31.5019 110.47 31.358C110.652 31.2178 110.805 30.983 110.93 30.6534L111.107 30.1818L107.942 21.2727H110.124L112.135 27.8636H112.226L114.243 21.2727H116.43L112.936 31.0568C112.773 31.5189 112.557 31.9148 112.288 32.2443C112.019 32.5777 111.69 32.8314 111.3 33.0057C110.913 33.1837 110.451 33.2727 109.913 33.2727ZM117.854 33.2727V21.2727H119.876V22.7159H119.996C120.102 22.5038 120.251 22.2784 120.445 22.0398C120.638 21.7973 120.899 21.5909 121.229 21.4205C121.558 21.2462 121.979 21.1591 122.49 21.1591C123.164 21.1591 123.772 21.3314 124.314 21.6761C124.859 22.017 125.291 22.5227 125.609 23.1932C125.931 23.8598 126.092 24.678 126.092 25.6477C126.092 26.6061 125.935 27.4205 125.621 28.0909C125.306 28.7614 124.878 29.2727 124.337 29.625C123.795 29.9773 123.181 30.1534 122.496 30.1534C121.996 30.1534 121.581 30.0701 121.251 29.9034C120.922 29.7367 120.657 29.536 120.456 29.3011C120.259 29.0625 120.106 28.8371 119.996 28.625H119.911V33.2727H117.854ZM119.871 25.6364C119.871 26.2008 119.95 26.6951 120.109 27.1193C120.272 27.5436 120.505 27.875 120.808 28.1136C121.115 28.3485 121.486 28.4659 121.922 28.4659C122.376 28.4659 122.757 28.3447 123.064 28.1023C123.371 27.8561 123.602 27.5208 123.757 27.0966C123.916 26.6686 123.996 26.1818 123.996 25.6364C123.996 25.0947 123.918 24.6136 123.763 24.1932C123.607 23.7727 123.376 23.4432 123.07 23.2045C122.763 22.9659 122.38 22.8466 121.922 22.8466C121.482 22.8466 121.109 22.9621 120.803 23.1932C120.496 23.4242 120.263 23.7481 120.104 24.1648C119.948 24.5814 119.871 25.072 119.871 25.6364ZM131.717 30.1705C130.842 30.1705 130.087 29.9886 129.45 29.625C128.818 29.2576 128.331 28.7386 127.99 28.0682C127.649 27.3939 127.479 26.6004 127.479 25.6875C127.479 24.7898 127.649 24.0019 127.99 23.3239C128.335 22.642 128.816 22.1117 129.433 21.733C130.051 21.3504 130.776 21.1591 131.609 21.1591C132.147 21.1591 132.655 21.2462 133.132 21.4205C133.613 21.5909 134.037 21.8561 134.405 22.2159C134.776 22.5758 135.068 23.0341 135.28 23.5909C135.492 24.1439 135.598 24.803 135.598 25.5682V26.1989H128.445V24.8125H133.626C133.623 24.4186 133.537 24.0682 133.371 23.7614C133.204 23.4508 132.971 23.2064 132.672 23.0284C132.376 22.8504 132.032 22.7614 131.638 22.7614C131.217 22.7614 130.848 22.8636 130.53 23.0682C130.212 23.2689 129.964 23.5341 129.786 23.8636C129.611 24.1894 129.522 24.5473 129.518 24.9375V26.1477C129.518 26.6553 129.611 27.0909 129.797 27.4545C129.982 27.8144 130.242 28.0909 130.575 28.2841C130.909 28.4735 131.299 28.5682 131.746 28.5682C132.045 28.5682 132.316 28.5265 132.558 28.4432C132.801 28.3561 133.011 28.2292 133.189 28.0625C133.367 27.8958 133.501 27.6894 133.592 27.4432L135.513 27.6591C135.392 28.1667 135.161 28.6098 134.82 28.9886C134.482 29.3636 134.051 29.6553 133.524 29.8636C132.998 30.0682 132.395 30.1705 131.717 30.1705ZM146.597 23.3352V25.0284H141.358V23.3352H146.597ZM162.382 18.3636V30H160.507L155.024 22.0739H154.928V30H152.82V18.3636H154.706L160.183 26.2955H160.286V18.3636H162.382ZM168.452 30.1705C167.577 30.1705 166.821 29.9886 166.185 29.625C165.552 29.2576 165.065 28.7386 164.724 28.0682C164.384 27.3939 164.213 26.6004 164.213 25.6875C164.213 24.7898 164.384 24.0019 164.724 23.3239C165.069 22.642 165.55 22.1117 166.168 21.733C166.785 21.3504 167.51 21.1591 168.344 21.1591C168.882 21.1591 169.389 21.2462 169.866 21.4205C170.348 21.5909 170.772 21.8561 171.139 22.2159C171.51 22.5758 171.802 23.0341 172.014 23.5909C172.226 24.1439 172.332 24.803 172.332 25.5682V26.1989H165.179V24.8125H170.361C170.357 24.4186 170.272 24.0682 170.105 23.7614C169.938 23.4508 169.705 23.2064 169.406 23.0284C169.111 22.8504 168.766 22.7614 168.372 22.7614C167.952 22.7614 167.582 22.8636 167.264 23.0682C166.946 23.2689 166.698 23.5341 166.52 23.8636C166.346 24.1894 166.257 24.5473 166.253 24.9375V26.1477C166.253 26.6553 166.346 27.0909 166.531 27.4545C166.717 27.8144 166.976 28.0909 167.31 28.2841C167.643 28.4735 168.033 28.5682 168.48 28.5682C168.779 28.5682 169.05 28.5265 169.293 28.4432C169.535 28.3561 169.745 28.2292 169.923 28.0625C170.101 27.8958 170.236 27.6894 170.327 27.4432L172.247 27.6591C172.126 28.1667 171.895 28.6098 171.554 28.9886C171.217 29.3636 170.785 29.6553 170.259 29.8636C169.732 30.0682 169.13 30.1705 168.452 30.1705ZM175.827 30L173.361 21.2727H175.457L176.991 27.4091H177.071L178.639 21.2727H180.713L182.281 27.375H182.366L183.878 21.2727H185.98L183.509 30H181.366L179.73 24.1023H179.611L177.974 30H175.827ZM196.947 26.3295V21.2727H199.004V30H197.01V28.4489H196.919C196.722 28.9375 196.398 29.3371 195.947 29.6477C195.5 29.9583 194.949 30.1136 194.294 30.1136C193.722 30.1136 193.216 29.9867 192.777 29.733C192.341 29.4754 192 29.1023 191.754 28.6136C191.508 28.1212 191.385 27.5265 191.385 26.8295V21.2727H193.442V26.5114C193.442 27.0644 193.593 27.5038 193.896 27.8295C194.199 28.1553 194.597 28.3182 195.089 28.3182C195.393 28.3182 195.686 28.2443 195.97 28.0966C196.254 27.9489 196.487 27.7292 196.669 27.4375C196.855 27.142 196.947 26.7727 196.947 26.3295ZM208.017 23.5795L206.142 23.7841C206.089 23.5947 205.996 23.4167 205.864 23.25C205.735 23.0833 205.561 22.9489 205.341 22.8466C205.121 22.7443 204.852 22.6932 204.534 22.6932C204.106 22.6932 203.746 22.786 203.455 22.9716C203.167 23.1572 203.025 23.3977 203.028 23.6932C203.025 23.947 203.117 24.1534 203.307 24.3125C203.5 24.4716 203.818 24.6023 204.261 24.7045L205.75 25.0227C206.576 25.2008 207.189 25.483 207.591 25.8693C207.996 26.2557 208.201 26.7614 208.205 27.3864C208.201 27.9356 208.04 28.4205 207.722 28.8409C207.407 29.2576 206.97 29.5833 206.409 29.8182C205.848 30.053 205.205 30.1705 204.477 30.1705C203.409 30.1705 202.549 29.947 201.898 29.5C201.246 29.0492 200.858 28.4223 200.733 27.6193L202.739 27.4261C202.83 27.8201 203.023 28.1174 203.318 28.3182C203.614 28.5189 203.998 28.6193 204.472 28.6193C204.96 28.6193 205.352 28.5189 205.648 28.3182C205.947 28.1174 206.097 27.8693 206.097 27.5739C206.097 27.3239 206 27.1174 205.807 26.9545C205.617 26.7917 205.322 26.6667 204.92 26.5795L203.432 26.267C202.595 26.0928 201.975 25.7992 201.574 25.3864C201.172 24.9697 200.973 24.4432 200.977 23.8068C200.973 23.2689 201.119 22.803 201.415 22.4091C201.714 22.0114 202.129 21.7045 202.659 21.4886C203.193 21.2689 203.809 21.1591 204.506 21.1591C205.528 21.1591 206.333 21.3769 206.92 21.8125C207.511 22.2481 207.877 22.8371 208.017 23.5795ZM213.764 30.1705C212.889 30.1705 212.134 29.9886 211.497 29.625C210.865 29.2576 210.378 28.7386 210.037 28.0682C209.696 27.3939 209.526 26.6004 209.526 25.6875C209.526 24.7898 209.696 24.0019 210.037 23.3239C210.382 22.642 210.863 22.1117 211.48 21.733C212.098 21.3504 212.823 21.1591 213.656 21.1591C214.194 21.1591 214.702 21.2462 215.179 21.4205C215.66 21.5909 216.084 21.8561 216.452 22.2159C216.823 22.5758 217.115 23.0341 217.327 23.5909C217.539 24.1439 217.645 24.803 217.645 25.5682V26.1989H210.491V24.8125H215.673C215.67 24.4186 215.584 24.0682 215.418 23.7614C215.251 23.4508 215.018 23.2064 214.719 23.0284C214.423 22.8504 214.079 22.7614 213.685 22.7614C213.264 22.7614 212.895 22.8636 212.577 23.0682C212.259 23.2689 212.01 23.5341 211.832 23.8636C211.658 24.1894 211.569 24.5473 211.565 24.9375V26.1477C211.565 26.6553 211.658 27.0909 211.844 27.4545C212.029 27.8144 212.289 28.0909 212.622 28.2841C212.955 28.4735 213.346 28.5682 213.793 28.5682C214.092 28.5682 214.363 28.5265 214.605 28.4432C214.848 28.3561 215.058 28.2292 215.236 28.0625C215.414 27.8958 215.548 27.6894 215.639 27.4432L217.56 27.6591C217.438 28.1667 217.207 28.6098 216.866 28.9886C216.529 29.3636 216.098 29.6553 215.571 29.8636C215.045 30.0682 214.442 30.1705 213.764 30.1705ZM219.385 30V21.2727H221.379V22.7273H221.47C221.629 22.2235 221.902 21.8352 222.288 21.5625C222.679 21.286 223.124 21.1477 223.624 21.1477C223.737 21.1477 223.864 21.1534 224.004 21.1648C224.148 21.1723 224.268 21.1856 224.362 21.2045V23.0966C224.275 23.0663 224.137 23.0398 223.947 23.017C223.762 22.9905 223.582 22.9773 223.408 22.9773C223.033 22.9773 222.696 23.0587 222.396 23.2216C222.101 23.3807 221.868 23.6023 221.697 23.8864C221.527 24.1705 221.442 24.4981 221.442 24.8693V30H219.385Z" fill="white"/>
</g>
<path d="M584.418 412L576.861 384.364H580.262L586.038 406.872H586.307L592.191 384.364H595.969L601.853 406.872H602.123L607.898 384.364H611.299L603.742 412H600.288L594.188 389.977H593.972L587.873 412H584.418ZM621.797 412.432C619.8 412.432 618.078 411.991 616.629 411.109C615.19 410.219 614.079 408.977 613.296 407.385C612.522 405.784 612.136 403.921 612.136 401.798C612.136 399.675 612.522 397.804 613.296 396.185C614.079 394.556 615.167 393.288 616.562 392.379C617.965 391.462 619.602 391.003 621.474 391.003C622.553 391.003 623.619 391.183 624.672 391.543C625.724 391.902 626.682 392.487 627.546 393.297C628.41 394.098 629.098 395.159 629.611 396.482C630.123 397.804 630.38 399.432 630.38 401.366V402.716H614.403V399.963H627.141C627.141 398.794 626.907 397.75 626.44 396.832C625.981 395.915 625.324 395.191 624.469 394.66C623.624 394.129 622.625 393.864 621.474 393.864C620.205 393.864 619.108 394.179 618.181 394.808C617.263 395.429 616.557 396.239 616.062 397.237C615.568 398.236 615.32 399.306 615.32 400.449V402.284C615.32 403.849 615.59 405.176 616.13 406.265C616.679 407.344 617.439 408.168 618.41 408.734C619.382 409.292 620.511 409.571 621.797 409.571C622.634 409.571 623.39 409.454 624.065 409.22C624.748 408.977 625.338 408.617 625.832 408.141C626.327 407.655 626.709 407.052 626.979 406.332L630.056 407.196C629.732 408.24 629.188 409.157 628.423 409.949C627.659 410.732 626.714 411.343 625.589 411.784C624.465 412.216 623.201 412.432 621.797 412.432ZM638.409 384.364V412H635.224V384.364H638.409ZM652.662 412.432C650.719 412.432 649.046 411.973 647.642 411.055C646.239 410.138 645.16 408.874 644.404 407.263C643.648 405.653 643.27 403.813 643.27 401.744C643.27 399.639 643.657 397.781 644.431 396.171C645.214 394.552 646.302 393.288 647.696 392.379C649.1 391.462 650.737 391.003 652.608 391.003C654.066 391.003 655.379 391.273 656.549 391.812C657.718 392.352 658.676 393.108 659.423 394.08C660.17 395.051 660.633 396.185 660.813 397.48H657.628C657.385 396.536 656.846 395.699 656.009 394.97C655.181 394.232 654.066 393.864 652.662 393.864C651.421 393.864 650.332 394.187 649.397 394.835C648.47 395.474 647.746 396.378 647.224 397.548C646.711 398.708 646.455 400.071 646.455 401.636C646.455 403.238 646.707 404.632 647.211 405.82C647.723 407.007 648.443 407.929 649.37 408.586C650.305 409.243 651.403 409.571 652.662 409.571C653.49 409.571 654.241 409.427 654.916 409.139C655.591 408.851 656.162 408.438 656.63 407.898C657.098 407.358 657.43 406.71 657.628 405.955H660.813C660.633 407.178 660.188 408.28 659.477 409.261C658.775 410.232 657.844 411.006 656.684 411.582C655.532 412.148 654.192 412.432 652.662 412.432ZM673.889 412.432C672.018 412.432 670.376 411.987 668.964 411.096C667.56 410.205 666.463 408.959 665.671 407.358C664.888 405.757 664.497 403.885 664.497 401.744C664.497 399.585 664.888 397.701 665.671 396.09C666.463 394.48 667.56 393.229 668.964 392.339C670.376 391.448 672.018 391.003 673.889 391.003C675.76 391.003 677.397 391.448 678.801 392.339C680.213 393.229 681.311 394.48 682.093 396.09C682.885 397.701 683.281 399.585 683.281 401.744C683.281 403.885 682.885 405.757 682.093 407.358C681.311 408.959 680.213 410.205 678.801 411.096C677.397 411.987 675.76 412.432 673.889 412.432ZM673.889 409.571C675.31 409.571 676.48 409.207 677.397 408.478C678.315 407.749 678.994 406.791 679.435 405.604C679.876 404.416 680.096 403.13 680.096 401.744C680.096 400.359 679.876 399.068 679.435 397.871C678.994 396.675 678.315 395.708 677.397 394.97C676.48 394.232 675.31 393.864 673.889 393.864C672.468 393.864 671.298 394.232 670.38 394.97C669.463 395.708 668.784 396.675 668.343 397.871C667.902 399.068 667.682 400.359 667.682 401.744C667.682 403.13 667.902 404.416 668.343 405.604C668.784 406.791 669.463 407.749 670.38 408.478C671.298 409.207 672.468 409.571 673.889 409.571ZM688.142 412V391.273H691.219V394.511H691.489C691.921 393.405 692.618 392.546 693.581 391.934C694.543 391.313 695.699 391.003 697.049 391.003C698.416 391.003 699.554 391.313 700.463 391.934C701.38 392.546 702.095 393.405 702.608 394.511H702.824C703.355 393.441 704.151 392.591 705.213 391.961C706.274 391.322 707.547 391.003 709.032 391.003C710.885 391.003 712.401 391.583 713.579 392.744C714.758 393.895 715.347 395.69 715.347 398.128V412H712.162V398.128C712.162 396.598 711.744 395.505 710.907 394.849C710.071 394.192 709.085 393.864 707.952 393.864C706.495 393.864 705.366 394.304 704.565 395.186C703.764 396.059 703.364 397.165 703.364 398.506V412H700.125V397.804C700.125 396.625 699.743 395.676 698.978 394.957C698.214 394.228 697.228 393.864 696.023 393.864C695.195 393.864 694.422 394.084 693.702 394.525C692.991 394.966 692.416 395.577 691.975 396.36C691.543 397.134 691.327 398.029 691.327 399.045V412H688.142ZM729.86 412.432C727.863 412.432 726.14 411.991 724.692 411.109C723.252 410.219 722.141 408.977 721.359 407.385C720.585 405.784 720.198 403.921 720.198 401.798C720.198 399.675 720.585 397.804 721.359 396.185C722.141 394.556 723.23 393.288 724.624 392.379C726.028 391.462 727.665 391.003 729.536 391.003C730.616 391.003 731.682 391.183 732.734 391.543C733.787 391.902 734.745 392.487 735.609 393.297C736.472 394.098 737.16 395.159 737.673 396.482C738.186 397.804 738.442 399.432 738.442 401.366V402.716H722.465V399.963H735.204C735.204 398.794 734.97 397.75 734.502 396.832C734.043 395.915 733.387 395.191 732.532 394.66C731.686 394.129 730.688 393.864 729.536 393.864C728.268 393.864 727.17 394.179 726.244 394.808C725.326 395.429 724.62 396.239 724.125 397.237C723.63 398.236 723.383 399.306 723.383 400.449V402.284C723.383 403.849 723.653 405.176 724.192 406.265C724.741 407.344 725.501 408.168 726.473 408.734C727.445 409.292 728.574 409.571 729.86 409.571C730.697 409.571 731.452 409.454 732.127 409.22C732.811 408.977 733.4 408.617 733.895 408.141C734.39 407.655 734.772 407.052 735.042 406.332L738.119 407.196C737.795 408.24 737.25 409.157 736.486 409.949C735.721 410.732 734.776 411.343 733.652 411.784C732.527 412.216 731.263 412.432 729.86 412.432ZM747.497 384.364L747.227 404.227H744.097L743.827 384.364H747.497ZM745.662 412.216C744.996 412.216 744.425 411.978 743.948 411.501C743.471 411.024 743.233 410.453 743.233 409.787C743.233 409.121 743.471 408.55 743.948 408.073C744.425 407.596 744.996 407.358 745.662 407.358C746.328 407.358 746.899 407.596 747.376 408.073C747.852 408.55 748.091 409.121 748.091 409.787C748.091 410.228 747.978 410.633 747.753 411.001C747.538 411.37 747.245 411.667 746.876 411.892C746.516 412.108 746.112 412.216 745.662 412.216Z" fill="black"/>
<rect x="534" y="474" width="264" height="13" fill="#D9D9D9"/>
<rect x="534" y="504" width="264" height="13" fill="#D9D9D9"/>
<rect x="534" y="764" width="264" height="68" fill="#D9D9D9"/>
<rect x="534" y="849" width="264" height="68" fill="#6D6D6D"/>
<path d="M592.317 806V788.545H602.851V790.42H594.43V796.318H602.305V798.193H594.43V804.125H602.987V806H592.317ZM607.888 792.909L611.024 798.261L614.161 792.909H616.479L612.251 799.455L616.479 806H614.161L611.024 800.92L607.888 806H605.57L609.729 799.455L605.57 792.909H607.888ZM619.349 806V792.909H621.36V806H619.349ZM620.371 790.727C619.979 790.727 619.641 790.594 619.357 790.327C619.079 790.06 618.94 789.739 618.94 789.364C618.94 788.989 619.079 788.668 619.357 788.401C619.641 788.134 619.979 788 620.371 788C620.763 788 621.099 788.134 621.377 788.401C621.661 788.668 621.803 788.989 621.803 789.364C621.803 789.739 621.661 790.06 621.377 790.327C621.099 790.594 620.763 790.727 620.371 790.727ZM634.317 795.841L632.51 796.352C632.396 796.051 632.229 795.759 632.007 795.474C631.791 795.185 631.496 794.946 631.121 794.759C630.746 794.571 630.266 794.477 629.68 794.477C628.879 794.477 628.212 794.662 627.678 795.031C627.149 795.395 626.885 795.858 626.885 796.42C626.885 796.92 627.067 797.315 627.43 797.605C627.794 797.895 628.362 798.136 629.135 798.33L631.078 798.807C632.249 799.091 633.121 799.526 633.695 800.111C634.268 800.69 634.555 801.437 634.555 802.352C634.555 803.102 634.339 803.773 633.908 804.364C633.482 804.955 632.885 805.42 632.118 805.761C631.351 806.102 630.459 806.273 629.442 806.273C628.107 806.273 627.001 805.983 626.126 805.403C625.251 804.824 624.697 803.977 624.464 802.864L626.374 802.386C626.555 803.091 626.899 803.619 627.405 803.972C627.916 804.324 628.584 804.5 629.408 804.5C630.345 804.5 631.089 804.301 631.641 803.903C632.197 803.5 632.476 803.017 632.476 802.455C632.476 802 632.317 801.619 631.999 801.312C631.68 801 631.192 800.767 630.533 800.614L628.351 800.102C627.152 799.818 626.271 799.378 625.709 798.781C625.152 798.179 624.874 797.426 624.874 796.523C624.874 795.784 625.081 795.131 625.496 794.562C625.916 793.994 626.487 793.548 627.209 793.224C627.936 792.901 628.76 792.739 629.68 792.739C630.976 792.739 631.993 793.023 632.732 793.591C633.476 794.159 634.004 794.909 634.317 795.841ZM643.276 792.909V794.614H636.492V792.909H643.276ZM638.469 789.773H640.481V802.25C640.481 802.818 640.563 803.244 640.728 803.528C640.898 803.807 641.114 803.994 641.376 804.091C641.643 804.182 641.924 804.227 642.219 804.227C642.441 804.227 642.623 804.216 642.765 804.193C642.907 804.165 643.021 804.142 643.106 804.125L643.515 805.932C643.379 805.983 643.188 806.034 642.944 806.085C642.7 806.142 642.39 806.17 642.015 806.17C641.447 806.17 640.89 806.048 640.344 805.804C639.805 805.56 639.356 805.188 638.998 804.688C638.646 804.188 638.469 803.557 638.469 802.795V789.773ZM646.302 806V792.909H648.313V806H646.302ZM647.325 790.727C646.933 790.727 646.594 790.594 646.31 790.327C646.032 790.06 645.893 789.739 645.893 789.364C645.893 788.989 646.032 788.668 646.31 788.401C646.594 788.134 646.933 788 647.325 788C647.717 788 648.052 788.134 648.33 788.401C648.614 788.668 648.756 788.989 648.756 789.364C648.756 789.739 648.614 790.06 648.33 790.327C648.052 790.594 647.717 790.727 647.325 790.727ZM654.009 798.125V806H651.997V792.909H653.94V794.955H654.111C654.418 794.29 654.884 793.756 655.509 793.352C656.134 792.943 656.94 792.739 657.929 792.739C658.815 792.739 659.591 792.92 660.256 793.284C660.92 793.642 661.438 794.188 661.807 794.92C662.176 795.648 662.361 796.568 662.361 797.682V806H660.349V797.818C660.349 796.79 660.082 795.989 659.548 795.415C659.014 794.835 658.281 794.545 657.349 794.545C656.707 794.545 656.134 794.685 655.628 794.963C655.128 795.241 654.733 795.648 654.443 796.182C654.153 796.716 654.009 797.364 654.009 798.125ZM671.32 811.182C670.349 811.182 669.513 811.057 668.815 810.807C668.116 810.562 667.533 810.239 667.067 809.835C666.607 809.438 666.241 809.011 665.968 808.557L667.57 807.432C667.752 807.67 667.982 807.943 668.261 808.25C668.539 808.562 668.92 808.832 669.403 809.06C669.891 809.293 670.531 809.409 671.32 809.409C672.377 809.409 673.249 809.153 673.937 808.642C674.624 808.131 674.968 807.33 674.968 806.239V803.58H674.798C674.65 803.818 674.44 804.114 674.167 804.466C673.9 804.812 673.513 805.122 673.008 805.395C672.508 805.662 671.832 805.795 670.979 805.795C669.923 805.795 668.974 805.545 668.133 805.045C667.298 804.545 666.636 803.818 666.147 802.864C665.664 801.909 665.423 800.75 665.423 799.386C665.423 798.045 665.658 796.878 666.13 795.884C666.602 794.884 667.258 794.111 668.099 793.565C668.94 793.014 669.911 792.739 671.013 792.739C671.866 792.739 672.542 792.881 673.042 793.165C673.548 793.443 673.934 793.761 674.201 794.119C674.474 794.472 674.684 794.761 674.832 794.989H675.036V792.909H676.979V806.375C676.979 807.5 676.724 808.415 676.212 809.119C675.707 809.83 675.025 810.349 674.167 810.679C673.315 811.014 672.366 811.182 671.32 811.182ZM671.252 803.989C672.059 803.989 672.741 803.804 673.298 803.435C673.854 803.065 674.278 802.534 674.567 801.841C674.857 801.148 675.002 800.318 675.002 799.352C675.002 798.409 674.86 797.577 674.576 796.855C674.292 796.134 673.871 795.568 673.315 795.159C672.758 794.75 672.07 794.545 671.252 794.545C670.4 794.545 669.69 794.761 669.121 795.193C668.559 795.625 668.136 796.205 667.852 796.932C667.573 797.659 667.434 798.466 667.434 799.352C667.434 800.261 667.576 801.065 667.86 801.764C668.15 802.457 668.576 803.003 669.138 803.401C669.707 803.793 670.411 803.989 671.252 803.989ZM699.138 788.545H701.252V800.102C701.252 801.295 700.971 802.361 700.408 803.298C699.852 804.23 699.065 804.966 698.048 805.506C697.031 806.04 695.837 806.307 694.468 806.307C693.099 806.307 691.906 806.04 690.888 805.506C689.871 804.966 689.082 804.23 688.519 803.298C687.962 802.361 687.684 801.295 687.684 800.102V788.545H689.798V799.932C689.798 800.784 689.985 801.543 690.36 802.207C690.735 802.866 691.269 803.386 691.962 803.767C692.661 804.142 693.496 804.33 694.468 804.33C695.44 804.33 696.275 804.142 696.974 803.767C697.673 803.386 698.207 802.866 698.576 802.207C698.951 801.543 699.138 800.784 699.138 799.932V788.545ZM714.473 795.841L712.666 796.352C712.553 796.051 712.385 795.759 712.163 795.474C711.947 795.185 711.652 794.946 711.277 794.759C710.902 794.571 710.422 794.477 709.837 794.477C709.036 794.477 708.368 794.662 707.834 795.031C707.305 795.395 707.041 795.858 707.041 796.42C707.041 796.92 707.223 797.315 707.587 797.605C707.95 797.895 708.518 798.136 709.291 798.33L711.234 798.807C712.405 799.091 713.277 799.526 713.851 800.111C714.425 800.69 714.712 801.437 714.712 802.352C714.712 803.102 714.496 803.773 714.064 804.364C713.638 804.955 713.041 805.42 712.274 805.761C711.507 806.102 710.615 806.273 709.598 806.273C708.263 806.273 707.158 805.983 706.283 805.403C705.408 804.824 704.854 803.977 704.621 802.864L706.53 802.386C706.712 803.091 707.055 803.619 707.561 803.972C708.072 804.324 708.74 804.5 709.564 804.5C710.501 804.5 711.246 804.301 711.797 803.903C712.354 803.5 712.632 803.017 712.632 802.455C712.632 802 712.473 801.619 712.155 801.312C711.837 801 711.348 800.767 710.689 800.614L708.507 800.102C707.308 799.818 706.428 799.378 705.865 798.781C705.308 798.179 705.03 797.426 705.03 796.523C705.03 795.784 705.237 795.131 705.652 794.562C706.072 793.994 706.643 793.548 707.365 793.224C708.092 792.901 708.916 792.739 709.837 792.739C711.132 792.739 712.149 793.023 712.888 793.591C713.632 794.159 714.161 794.909 714.473 795.841ZM723.228 806.273C721.967 806.273 720.879 805.994 719.964 805.438C719.055 804.875 718.353 804.091 717.859 803.085C717.37 802.074 717.126 800.898 717.126 799.557C717.126 798.216 717.37 797.034 717.859 796.011C718.353 794.983 719.04 794.182 719.921 793.608C720.808 793.028 721.842 792.739 723.023 792.739C723.705 792.739 724.379 792.852 725.043 793.08C725.708 793.307 726.313 793.676 726.859 794.188C727.404 794.693 727.839 795.364 728.163 796.199C728.487 797.034 728.648 798.062 728.648 799.284V800.136H718.558V798.398H726.603C726.603 797.659 726.455 797 726.16 796.42C725.87 795.841 725.455 795.384 724.915 795.048C724.381 794.713 723.751 794.545 723.023 794.545C722.222 794.545 721.529 794.744 720.944 795.142C720.364 795.534 719.918 796.045 719.606 796.676C719.293 797.307 719.137 797.983 719.137 798.705V799.864C719.137 800.852 719.308 801.69 719.648 802.378C719.995 803.06 720.475 803.58 721.089 803.938C721.702 804.29 722.415 804.466 723.228 804.466C723.756 804.466 724.234 804.392 724.66 804.244C725.092 804.091 725.464 803.864 725.776 803.562C726.089 803.256 726.33 802.875 726.501 802.42L728.444 802.966C728.239 803.625 727.896 804.205 727.413 804.705C726.93 805.199 726.333 805.585 725.623 805.864C724.913 806.136 724.114 806.273 723.228 806.273ZM731.708 806V792.909H733.651V794.886H733.788C734.026 794.239 734.458 793.713 735.083 793.31C735.708 792.906 736.413 792.705 737.197 792.705C737.344 792.705 737.529 792.707 737.751 792.713C737.972 792.719 738.14 792.727 738.254 792.739V794.784C738.185 794.767 738.029 794.741 737.785 794.707C737.546 794.668 737.293 794.648 737.026 794.648C736.39 794.648 735.822 794.781 735.322 795.048C734.827 795.31 734.435 795.673 734.146 796.139C733.862 796.599 733.719 797.125 733.719 797.716V806H731.708Z" fill="black"/>
<path d="M624.197 873.545V891H622.151L612.64 877.295H612.469V891H610.356V873.545H612.401L621.947 887.284H622.117V873.545H624.197ZM633.642 891.273C632.381 891.273 631.293 890.994 630.378 890.438C629.469 889.875 628.767 889.091 628.273 888.085C627.784 887.074 627.54 885.898 627.54 884.557C627.54 883.216 627.784 882.034 628.273 881.011C628.767 879.983 629.455 879.182 630.335 878.608C631.222 878.028 632.256 877.739 633.438 877.739C634.119 877.739 634.793 877.852 635.457 878.08C636.122 878.307 636.727 878.676 637.273 879.188C637.818 879.693 638.253 880.364 638.577 881.199C638.901 882.034 639.062 883.062 639.062 884.284V885.136H628.972V883.398H637.017C637.017 882.659 636.869 882 636.574 881.42C636.284 880.841 635.869 880.384 635.33 880.048C634.795 879.713 634.165 879.545 633.438 879.545C632.636 879.545 631.943 879.744 631.358 880.142C630.778 880.534 630.332 881.045 630.02 881.676C629.707 882.307 629.551 882.983 629.551 883.705V884.864C629.551 885.852 629.722 886.69 630.062 887.378C630.409 888.06 630.889 888.58 631.503 888.938C632.116 889.29 632.83 889.466 633.642 889.466C634.17 889.466 634.648 889.392 635.074 889.244C635.506 889.091 635.878 888.864 636.19 888.562C636.503 888.256 636.744 887.875 636.915 887.42L638.858 887.966C638.653 888.625 638.31 889.205 637.827 889.705C637.344 890.199 636.747 890.585 636.037 890.864C635.327 891.136 634.528 891.273 633.642 891.273ZM645.088 891L641.099 877.909H643.213L646.043 887.932H646.179L648.974 877.909H651.122L653.884 887.898H654.02L656.849 877.909H658.963L654.974 891H652.997L650.134 880.943H649.929L647.065 891H645.088ZM680.099 873.545H682.213V885.102C682.213 886.295 681.932 887.361 681.369 888.298C680.813 889.23 680.026 889.966 679.009 890.506C677.991 891.04 676.798 891.307 675.429 891.307C674.06 891.307 672.866 891.04 671.849 890.506C670.832 889.966 670.043 889.23 669.48 888.298C668.923 887.361 668.645 886.295 668.645 885.102V873.545H670.759V884.932C670.759 885.784 670.946 886.543 671.321 887.207C671.696 887.866 672.23 888.386 672.923 888.767C673.622 889.142 674.457 889.33 675.429 889.33C676.401 889.33 677.236 889.142 677.935 888.767C678.634 888.386 679.168 887.866 679.537 887.207C679.912 886.543 680.099 885.784 680.099 884.932V873.545ZM695.434 880.841L693.627 881.352C693.513 881.051 693.346 880.759 693.124 880.474C692.908 880.185 692.613 879.946 692.238 879.759C691.863 879.571 691.383 879.477 690.798 879.477C689.996 879.477 689.329 879.662 688.795 880.031C688.266 880.395 688.002 880.858 688.002 881.42C688.002 881.92 688.184 882.315 688.548 882.605C688.911 882.895 689.479 883.136 690.252 883.33L692.195 883.807C693.366 884.091 694.238 884.526 694.812 885.111C695.386 885.69 695.673 886.437 695.673 887.352C695.673 888.102 695.457 888.773 695.025 889.364C694.599 889.955 694.002 890.42 693.235 890.761C692.468 891.102 691.576 891.273 690.559 891.273C689.224 891.273 688.119 890.983 687.244 890.403C686.369 889.824 685.815 888.977 685.582 887.864L687.491 887.386C687.673 888.091 688.016 888.619 688.522 888.972C689.033 889.324 689.701 889.5 690.525 889.5C691.462 889.5 692.207 889.301 692.758 888.903C693.315 888.5 693.593 888.017 693.593 887.455C693.593 887 693.434 886.619 693.116 886.312C692.798 886 692.309 885.767 691.65 885.614L689.468 885.102C688.269 884.818 687.388 884.378 686.826 883.781C686.269 883.179 685.991 882.426 685.991 881.523C685.991 880.784 686.198 880.131 686.613 879.562C687.033 878.994 687.604 878.548 688.326 878.224C689.053 877.901 689.877 877.739 690.798 877.739C692.093 877.739 693.11 878.023 693.849 878.591C694.593 879.159 695.121 879.909 695.434 880.841ZM704.189 891.273C702.928 891.273 701.839 890.994 700.925 890.438C700.016 889.875 699.314 889.091 698.82 888.085C698.331 887.074 698.087 885.898 698.087 884.557C698.087 883.216 698.331 882.034 698.82 881.011C699.314 879.983 700.001 879.182 700.882 878.608C701.768 878.028 702.803 877.739 703.984 877.739C704.666 877.739 705.339 877.852 706.004 878.08C706.669 878.307 707.274 878.676 707.82 879.188C708.365 879.693 708.8 880.364 709.124 881.199C709.447 882.034 709.609 883.062 709.609 884.284V885.136H699.518V883.398H707.564C707.564 882.659 707.416 882 707.121 881.42C706.831 880.841 706.416 880.384 705.876 880.048C705.342 879.713 704.712 879.545 703.984 879.545C703.183 879.545 702.49 879.744 701.905 880.142C701.325 880.534 700.879 881.045 700.567 881.676C700.254 882.307 700.098 882.983 700.098 883.705V884.864C700.098 885.852 700.268 886.69 700.609 887.378C700.956 888.06 701.436 888.58 702.05 888.938C702.663 889.29 703.376 889.466 704.189 889.466C704.717 889.466 705.195 889.392 705.621 889.244C706.053 889.091 706.425 888.864 706.737 888.562C707.05 888.256 707.291 887.875 707.462 887.42L709.405 887.966C709.2 888.625 708.857 889.205 708.374 889.705C707.891 890.199 707.294 890.585 706.584 890.864C705.874 891.136 705.075 891.273 704.189 891.273ZM712.669 891V877.909H714.612V879.886H714.749C714.987 879.239 715.419 878.713 716.044 878.31C716.669 877.906 717.374 877.705 718.158 877.705C718.305 877.705 718.49 877.707 718.712 877.713C718.933 877.719 719.101 877.727 719.214 877.739V879.784C719.146 879.767 718.99 879.741 718.746 879.707C718.507 879.668 718.254 879.648 717.987 879.648C717.351 879.648 716.783 879.781 716.283 880.048C715.788 880.31 715.396 880.673 715.107 881.139C714.822 881.599 714.68 882.125 714.68 882.716V891H712.669Z" fill="white"/>
<path d="M1048.56 327H1045.21C1045.02 326.037 1044.67 325.192 1044.17 324.463C1043.69 323.734 1043.09 323.123 1042.39 322.628C1041.7 322.124 1040.93 321.746 1040.09 321.494C1039.24 321.242 1038.36 321.116 1037.44 321.116C1035.77 321.116 1034.25 321.539 1032.89 322.385C1031.54 323.231 1030.47 324.477 1029.67 326.123C1028.88 327.769 1028.48 329.789 1028.48 332.182C1028.48 334.575 1028.88 336.594 1029.67 338.241C1030.47 339.887 1031.54 341.133 1032.89 341.979C1034.25 342.824 1035.77 343.247 1037.44 343.247C1038.36 343.247 1039.24 343.121 1040.09 342.869C1040.93 342.617 1041.7 342.244 1042.39 341.749C1043.09 341.246 1043.69 340.629 1044.17 339.901C1044.67 339.163 1045.02 338.317 1045.21 337.364H1048.56C1048.31 338.776 1047.85 340.04 1047.18 341.156C1046.52 342.271 1045.69 343.22 1044.7 344.003C1043.71 344.777 1042.6 345.366 1041.37 345.771C1040.14 346.175 1038.83 346.378 1037.44 346.378C1035.08 346.378 1032.99 345.802 1031.15 344.651C1029.32 343.499 1027.87 341.862 1026.82 339.739C1025.77 337.616 1025.24 335.097 1025.24 332.182C1025.24 329.267 1025.77 326.748 1026.82 324.625C1027.87 322.502 1029.32 320.865 1031.15 319.713C1032.99 318.562 1035.08 317.986 1037.44 317.986C1038.83 317.986 1040.14 318.188 1041.37 318.593C1042.6 318.998 1043.71 319.592 1044.7 320.374C1045.69 321.148 1046.52 322.093 1047.18 323.208C1047.85 324.315 1048.31 325.579 1048.56 327ZM1053.54 346V325.273H1056.61V328.403H1056.83C1057.21 327.378 1057.89 326.546 1058.88 325.907C1059.87 325.268 1060.98 324.949 1062.23 324.949C1062.46 324.949 1062.75 324.953 1063.1 324.962C1063.45 324.971 1063.72 324.985 1063.9 325.003V328.241C1063.79 328.214 1063.54 328.174 1063.16 328.12C1062.78 328.057 1062.38 328.026 1061.96 328.026C1060.95 328.026 1060.05 328.237 1059.26 328.66C1058.47 329.074 1057.85 329.649 1057.4 330.387C1056.95 331.116 1056.72 331.948 1056.72 332.884V346H1053.54ZM1075.73 346.432C1073.74 346.432 1072.01 345.991 1070.57 345.109C1069.13 344.219 1068.02 342.977 1067.23 341.385C1066.46 339.784 1066.07 337.921 1066.07 335.798C1066.07 333.675 1066.46 331.804 1067.23 330.185C1068.02 328.556 1069.1 327.288 1070.5 326.379C1071.9 325.462 1073.54 325.003 1075.41 325.003C1076.49 325.003 1077.56 325.183 1078.61 325.543C1079.66 325.902 1080.62 326.487 1081.48 327.297C1082.35 328.098 1083.03 329.159 1083.55 330.482C1084.06 331.804 1084.32 333.432 1084.32 335.366V336.716H1068.34V333.963H1081.08C1081.08 332.794 1080.84 331.75 1080.38 330.832C1079.92 329.915 1079.26 329.191 1078.41 328.66C1077.56 328.129 1076.56 327.864 1075.41 327.864C1074.14 327.864 1073.04 328.179 1072.12 328.808C1071.2 329.429 1070.49 330.239 1070 331.237C1069.5 332.236 1069.26 333.306 1069.26 334.449V336.284C1069.26 337.849 1069.53 339.176 1070.07 340.265C1070.62 341.344 1071.38 342.168 1072.35 342.734C1073.32 343.292 1074.45 343.571 1075.73 343.571C1076.57 343.571 1077.33 343.454 1078 343.22C1078.68 342.977 1079.27 342.617 1079.77 342.141C1080.26 341.655 1080.65 341.052 1080.92 340.332L1083.99 341.196C1083.67 342.24 1083.12 343.157 1082.36 343.949C1081.6 344.732 1080.65 345.343 1079.53 345.784C1078.4 346.216 1077.14 346.432 1075.73 346.432ZM1095.26 346.486C1093.95 346.486 1092.75 346.238 1091.68 345.744C1090.61 345.24 1089.76 344.516 1089.13 343.571C1088.5 342.617 1088.19 341.466 1088.19 340.116C1088.19 338.929 1088.42 337.966 1088.89 337.229C1089.36 336.482 1089.98 335.897 1090.77 335.474C1091.55 335.052 1092.41 334.737 1093.36 334.53C1094.31 334.314 1095.27 334.143 1096.23 334.017C1097.49 333.855 1098.51 333.734 1099.3 333.653C1100.09 333.563 1100.66 333.414 1101.02 333.207C1101.39 333 1101.58 332.641 1101.58 332.128V332.02C1101.58 330.688 1101.21 329.654 1100.48 328.916C1099.76 328.179 1098.67 327.81 1097.2 327.81C1095.68 327.81 1094.49 328.143 1093.63 328.808C1092.76 329.474 1092.16 330.185 1091.81 330.94L1088.78 329.861C1089.32 328.601 1090.04 327.621 1090.94 326.919C1091.85 326.208 1092.84 325.714 1093.91 325.435C1094.99 325.147 1096.05 325.003 1097.1 325.003C1097.76 325.003 1098.53 325.084 1099.39 325.246C1100.26 325.399 1101.1 325.718 1101.91 326.204C1102.73 326.69 1103.41 327.423 1103.95 328.403C1104.49 329.384 1104.76 330.697 1104.76 332.344V346H1101.58V343.193H1101.41C1101.2 343.643 1100.84 344.124 1100.33 344.637C1099.83 345.15 1099.16 345.586 1098.32 345.946C1097.49 346.306 1096.47 346.486 1095.26 346.486ZM1095.75 343.625C1097.01 343.625 1098.07 343.378 1098.93 342.883C1099.8 342.388 1100.46 341.749 1100.9 340.967C1101.35 340.184 1101.58 339.361 1101.58 338.497V335.582C1101.44 335.744 1101.14 335.893 1100.69 336.028C1100.24 336.154 1099.71 336.266 1099.12 336.365C1098.53 336.455 1097.96 336.536 1097.41 336.608C1096.86 336.671 1096.41 336.725 1096.07 336.77C1095.24 336.878 1094.47 337.053 1093.75 337.296C1093.04 337.53 1092.46 337.885 1092.02 338.362C1091.59 338.83 1091.37 339.469 1091.37 340.278C1091.37 341.385 1091.78 342.222 1092.6 342.788C1093.43 343.346 1094.48 343.625 1095.75 343.625ZM1119.59 325.273V327.972H1108.85V325.273H1119.59ZM1111.98 320.307H1115.16V340.062C1115.16 340.962 1115.29 341.637 1115.55 342.087C1115.82 342.527 1116.16 342.824 1116.58 342.977C1117 343.121 1117.45 343.193 1117.91 343.193C1118.26 343.193 1118.55 343.175 1118.78 343.139C1119 343.094 1119.18 343.058 1119.32 343.031L1119.97 345.892C1119.75 345.973 1119.45 346.054 1119.06 346.135C1118.67 346.225 1118.18 346.27 1117.59 346.27C1116.69 346.27 1115.81 346.076 1114.95 345.69C1114.09 345.303 1113.38 344.714 1112.81 343.922C1112.26 343.13 1111.98 342.132 1111.98 340.926V320.307ZM1132.85 346.432C1130.85 346.432 1129.13 345.991 1127.68 345.109C1126.24 344.219 1125.13 342.977 1124.34 341.385C1123.57 339.784 1123.18 337.921 1123.18 335.798C1123.18 333.675 1123.57 331.804 1124.34 330.185C1125.13 328.556 1126.22 327.288 1127.61 326.379C1129.01 325.462 1130.65 325.003 1132.52 325.003C1133.6 325.003 1134.67 325.183 1135.72 325.543C1136.77 325.902 1137.73 326.487 1138.59 327.297C1139.46 328.098 1140.15 329.159 1140.66 330.482C1141.17 331.804 1141.43 333.432 1141.43 335.366V336.716H1125.45V333.963H1138.19C1138.19 332.794 1137.96 331.75 1137.49 330.832C1137.03 329.915 1136.37 329.191 1135.52 328.66C1134.67 328.129 1133.67 327.864 1132.52 327.864C1131.25 327.864 1130.16 328.179 1129.23 328.808C1128.31 329.429 1127.61 330.239 1127.11 331.237C1126.62 332.236 1126.37 333.306 1126.37 334.449V336.284C1126.37 337.849 1126.64 339.176 1127.18 340.265C1127.73 341.344 1128.49 342.168 1129.46 342.734C1130.43 343.292 1131.56 343.571 1132.85 343.571C1133.68 343.571 1134.44 343.454 1135.11 343.22C1135.8 342.977 1136.39 342.617 1136.88 342.141C1137.37 341.655 1137.76 341.052 1138.03 340.332L1141.1 341.196C1140.78 342.24 1140.24 343.157 1139.47 343.949C1138.71 344.732 1137.76 345.343 1136.64 345.784C1135.51 346.216 1134.25 346.432 1132.85 346.432ZM1163.06 346.486C1161.75 346.486 1160.55 346.238 1159.48 345.744C1158.41 345.24 1157.56 344.516 1156.93 343.571C1156.3 342.617 1155.99 341.466 1155.99 340.116C1155.99 338.929 1156.22 337.966 1156.69 337.229C1157.16 336.482 1157.78 335.897 1158.57 335.474C1159.35 335.052 1160.21 334.737 1161.16 334.53C1162.11 334.314 1163.07 334.143 1164.03 334.017C1165.29 333.855 1166.31 333.734 1167.09 333.653C1167.89 333.563 1168.46 333.414 1168.82 333.207C1169.19 333 1169.37 332.641 1169.37 332.128V332.02C1169.37 330.688 1169.01 329.654 1168.28 328.916C1167.56 328.179 1166.47 327.81 1165 327.81C1163.48 327.81 1162.29 328.143 1161.43 328.808C1160.56 329.474 1159.96 330.185 1159.6 330.94L1156.58 329.861C1157.12 328.601 1157.84 327.621 1158.74 326.919C1159.65 326.208 1160.64 325.714 1161.71 325.435C1162.79 325.147 1163.85 325.003 1164.89 325.003C1165.56 325.003 1166.32 325.084 1167.19 325.246C1168.06 325.399 1168.9 325.718 1169.71 326.204C1170.53 326.69 1171.21 327.423 1171.75 328.403C1172.29 329.384 1172.56 330.697 1172.56 332.344V346H1169.37V343.193H1169.21C1169 343.643 1168.64 344.124 1168.13 344.637C1167.63 345.15 1166.96 345.586 1166.12 345.946C1165.29 346.306 1164.26 346.486 1163.06 346.486ZM1163.54 343.625C1164.8 343.625 1165.87 343.378 1166.73 342.883C1167.6 342.388 1168.26 341.749 1168.7 340.967C1169.15 340.184 1169.37 339.361 1169.37 338.497V335.582C1169.24 335.744 1168.94 335.893 1168.48 336.028C1168.03 336.154 1167.51 336.266 1166.92 336.365C1166.33 336.455 1165.76 336.536 1165.2 336.608C1164.66 336.671 1164.21 336.725 1163.87 336.77C1163.04 336.878 1162.27 337.053 1161.55 337.296C1160.84 337.53 1160.26 337.885 1159.82 338.362C1159.39 338.83 1159.17 339.469 1159.17 340.278C1159.17 341.385 1159.58 342.222 1160.4 342.788C1161.23 343.346 1162.28 343.625 1163.54 343.625ZM1181.56 333.531V346H1178.37V325.273H1181.45V328.511H1181.72C1182.2 327.459 1182.94 326.613 1183.93 325.974C1184.92 325.327 1186.2 325.003 1187.76 325.003C1189.17 325.003 1190.4 325.291 1191.45 325.866C1192.5 326.433 1193.32 327.297 1193.9 328.457C1194.49 329.609 1194.78 331.066 1194.78 332.83V346H1191.6V333.045C1191.6 331.417 1191.17 330.149 1190.33 329.24C1189.48 328.322 1188.32 327.864 1186.85 327.864C1185.83 327.864 1184.92 328.084 1184.12 328.525C1183.33 328.966 1182.7 329.609 1182.24 330.455C1181.79 331.3 1181.56 332.326 1181.56 333.531ZM1217.39 346.486C1216.07 346.486 1214.88 346.238 1213.81 345.744C1212.74 345.24 1211.89 344.516 1211.26 343.571C1210.63 342.617 1210.32 341.466 1210.32 340.116C1210.32 338.929 1210.55 337.966 1211.02 337.229C1211.49 336.482 1212.11 335.897 1212.89 335.474C1213.68 335.052 1214.54 334.737 1215.48 334.53C1216.44 334.314 1217.4 334.143 1218.36 334.017C1219.62 333.855 1220.64 333.734 1221.42 333.653C1222.21 333.563 1222.79 333.414 1223.15 333.207C1223.52 333 1223.7 332.641 1223.7 332.128V332.02C1223.7 330.688 1223.34 329.654 1222.61 328.916C1221.89 328.179 1220.8 327.81 1219.33 327.81C1217.81 327.81 1216.62 328.143 1215.75 328.808C1214.89 329.474 1214.28 330.185 1213.93 330.94L1210.91 329.861C1211.45 328.601 1212.17 327.621 1213.07 326.919C1213.98 326.208 1214.97 325.714 1216.04 325.435C1217.12 325.147 1218.18 325.003 1219.22 325.003C1219.89 325.003 1220.65 325.084 1221.52 325.246C1222.39 325.399 1223.23 325.718 1224.04 326.204C1224.86 326.69 1225.54 327.423 1226.08 328.403C1226.62 329.384 1226.89 330.697 1226.89 332.344V346H1223.7V343.193H1223.54C1223.32 343.643 1222.96 344.124 1222.46 344.637C1221.96 345.15 1221.29 345.586 1220.45 345.946C1219.61 346.306 1218.59 346.486 1217.39 346.486ZM1217.87 343.625C1219.13 343.625 1220.19 343.378 1221.06 342.883C1221.93 342.388 1222.59 341.749 1223.03 340.967C1223.48 340.184 1223.7 339.361 1223.7 338.497V335.582C1223.57 335.744 1223.27 335.893 1222.81 336.028C1222.36 336.154 1221.84 336.266 1221.25 336.365C1220.66 336.455 1220.09 336.536 1219.53 336.608C1218.98 336.671 1218.54 336.725 1218.2 336.77C1217.37 336.878 1216.6 337.053 1215.88 337.296C1215.17 337.53 1214.59 337.885 1214.15 338.362C1213.72 338.83 1213.5 339.469 1213.5 340.278C1213.5 341.385 1213.91 342.222 1214.73 342.788C1215.56 343.346 1216.6 343.625 1217.87 343.625ZM1241.12 346.432C1239.18 346.432 1237.5 345.973 1236.1 345.055C1234.7 344.138 1233.62 342.874 1232.86 341.263C1232.11 339.653 1231.73 337.813 1231.73 335.744C1231.73 333.639 1232.12 331.781 1232.89 330.171C1233.67 328.552 1234.76 327.288 1236.15 326.379C1237.56 325.462 1239.2 325.003 1241.07 325.003C1242.52 325.003 1243.84 325.273 1245.01 325.812C1246.18 326.352 1247.13 327.108 1247.88 328.08C1248.63 329.051 1249.09 330.185 1249.27 331.48H1246.09C1245.84 330.536 1245.3 329.699 1244.47 328.97C1243.64 328.232 1242.52 327.864 1241.12 327.864C1239.88 327.864 1238.79 328.187 1237.85 328.835C1236.93 329.474 1236.2 330.378 1235.68 331.548C1235.17 332.708 1234.91 334.071 1234.91 335.636C1234.91 337.238 1235.16 338.632 1235.67 339.82C1236.18 341.007 1236.9 341.929 1237.83 342.586C1238.76 343.243 1239.86 343.571 1241.12 343.571C1241.95 343.571 1242.7 343.427 1243.37 343.139C1244.05 342.851 1244.62 342.438 1245.09 341.898C1245.56 341.358 1245.89 340.71 1246.09 339.955H1249.27C1249.09 341.178 1248.65 342.28 1247.94 343.261C1247.23 344.232 1246.3 345.006 1245.14 345.582C1243.99 346.148 1242.65 346.432 1241.12 346.432ZM1262.35 346.432C1260.4 346.432 1258.73 345.973 1257.33 345.055C1255.92 344.138 1254.84 342.874 1254.09 341.263C1253.33 339.653 1252.95 337.813 1252.95 335.744C1252.95 333.639 1253.34 331.781 1254.12 330.171C1254.9 328.552 1255.99 327.288 1257.38 326.379C1258.78 325.462 1260.42 325.003 1262.29 325.003C1263.75 325.003 1265.06 325.273 1266.23 325.812C1267.4 326.352 1268.36 327.108 1269.11 328.08C1269.85 329.051 1270.32 330.185 1270.5 331.48H1267.31C1267.07 330.536 1266.53 329.699 1265.69 328.97C1264.87 328.232 1263.75 327.864 1262.35 327.864C1261.11 327.864 1260.02 328.187 1259.08 328.835C1258.15 329.474 1257.43 330.378 1256.91 331.548C1256.4 332.708 1256.14 334.071 1256.14 335.636C1256.14 337.238 1256.39 338.632 1256.9 339.82C1257.41 341.007 1258.13 341.929 1259.05 342.586C1259.99 343.243 1261.09 343.571 1262.35 343.571C1263.17 343.571 1263.93 343.427 1264.6 343.139C1265.28 342.851 1265.85 342.438 1266.31 341.898C1266.78 341.358 1267.11 340.71 1267.31 339.955H1270.5C1270.32 341.178 1269.87 342.28 1269.16 343.261C1268.46 344.232 1267.53 345.006 1266.37 345.582C1265.22 346.148 1263.88 346.432 1262.35 346.432ZM1283.57 346.432C1281.7 346.432 1280.06 345.987 1278.65 345.096C1277.24 344.205 1276.15 342.959 1275.36 341.358C1274.57 339.757 1274.18 337.885 1274.18 335.744C1274.18 333.585 1274.57 331.701 1275.36 330.09C1276.15 328.48 1277.24 327.229 1278.65 326.339C1280.06 325.448 1281.7 325.003 1283.57 325.003C1285.44 325.003 1287.08 325.448 1288.49 326.339C1289.9 327.229 1291 328.48 1291.78 330.09C1292.57 331.701 1292.97 333.585 1292.97 335.744C1292.97 337.885 1292.57 339.757 1291.78 341.358C1291 342.959 1289.9 344.205 1288.49 345.096C1287.08 345.987 1285.44 346.432 1283.57 346.432ZM1283.57 343.571C1284.99 343.571 1286.16 343.207 1287.08 342.478C1288 341.749 1288.68 340.791 1289.12 339.604C1289.56 338.416 1289.78 337.13 1289.78 335.744C1289.78 334.359 1289.56 333.068 1289.12 331.871C1288.68 330.675 1288 329.708 1287.08 328.97C1286.16 328.232 1284.99 327.864 1283.57 327.864C1282.15 327.864 1280.98 328.232 1280.06 328.97C1279.15 329.708 1278.47 330.675 1278.03 331.871C1277.59 333.068 1277.37 334.359 1277.37 335.744C1277.37 337.13 1277.59 338.416 1278.03 339.604C1278.47 340.791 1279.15 341.749 1280.06 342.478C1280.98 343.207 1282.15 343.571 1283.57 343.571ZM1310.89 337.526V325.273H1314.07V346H1310.89V342.491H1310.67C1310.19 343.544 1309.43 344.439 1308.41 345.177C1307.38 345.906 1306.09 346.27 1304.52 346.27C1303.22 346.27 1302.07 345.987 1301.07 345.42C1300.06 344.844 1299.27 343.98 1298.69 342.829C1298.11 341.668 1297.83 340.206 1297.83 338.443V325.273H1301.01V338.227C1301.01 339.739 1301.43 340.944 1302.28 341.844C1303.13 342.743 1304.22 343.193 1305.55 343.193C1306.34 343.193 1307.14 342.991 1307.96 342.586C1308.79 342.181 1309.48 341.56 1310.04 340.724C1310.61 339.887 1310.89 338.821 1310.89 337.526ZM1323.09 333.531V346H1319.91V325.273H1322.98V328.511H1323.25C1323.74 327.459 1324.48 326.613 1325.47 325.974C1326.46 325.327 1327.73 325.003 1329.3 325.003C1330.7 325.003 1331.93 325.291 1332.98 325.866C1334.04 326.433 1334.85 327.297 1335.44 328.457C1336.02 329.609 1336.32 331.066 1336.32 332.83V346H1333.13V333.045C1333.13 331.417 1332.71 330.149 1331.86 329.24C1331.02 328.322 1329.86 327.864 1328.38 327.864C1327.36 327.864 1326.46 328.084 1325.66 328.525C1324.86 328.966 1324.24 329.609 1323.78 330.455C1323.32 331.3 1323.09 332.326 1323.09 333.531ZM1351.15 325.273V327.972H1340.41V325.273H1351.15ZM1343.54 320.307H1346.72V340.062C1346.72 340.962 1346.85 341.637 1347.11 342.087C1347.38 342.527 1347.73 342.824 1348.14 342.977C1348.56 343.121 1349.01 343.193 1349.48 343.193C1349.83 343.193 1350.12 343.175 1350.34 343.139C1350.56 343.094 1350.74 343.058 1350.88 343.031L1351.53 345.892C1351.31 345.973 1351.01 346.054 1350.62 346.135C1350.24 346.225 1349.75 346.27 1349.15 346.27C1348.25 346.27 1347.37 346.076 1346.51 345.69C1345.65 345.303 1344.94 344.714 1344.38 343.922C1343.82 343.13 1343.54 342.132 1343.54 340.926V320.307Z" fill="black"/>
<rect x="1058" y="408" width="264" height="13" fill="#D9D9D9"/>
<rect x="1058" y="438" width="264" height="13" fill="#D9D9D9"/>
<rect x="1058" y="498" width="264" height="68" fill="#D9D9D9"/>
<rect x="1058" y="583" width="264" height="68" fill="#D9D9D9"/>
<rect x="1058" y="668" width="264" height="68" fill="#D9D9D9"/>
<rect x="1058" y="753" width="264" height="68" fill="#D9D9D9"/>
<rect x="1058" y="898" width="72" height="68" fill="#D9D9D9"/>
<rect x="1152" y="898" width="72" height="68" fill="#D9D9D9"/>
<rect x="1246" y="898" width="72" height="68" fill="#D9D9D9"/>
<path d="M1101.62 927C1101.32 926.091 1100.93 925.277 1100.44 924.558C1099.97 923.829 1099.4 923.208 1098.73 922.695C1098.07 922.183 1097.33 921.791 1096.49 921.521C1095.65 921.251 1094.74 921.116 1093.74 921.116C1092.1 921.116 1090.61 921.539 1089.27 922.385C1087.93 923.231 1086.86 924.477 1086.07 926.123C1085.28 927.769 1084.89 929.789 1084.89 932.182C1084.89 934.575 1085.29 936.594 1086.09 938.241C1086.89 939.887 1087.97 941.133 1089.34 941.979C1090.71 942.824 1092.24 943.247 1093.95 943.247C1095.54 943.247 1096.93 942.91 1098.14 942.235C1099.35 941.551 1100.3 940.589 1100.97 939.347C1101.65 938.097 1102 936.626 1102 934.935L1103.02 935.151H1094.71V932.182H1105.23V935.151C1105.23 937.427 1104.75 939.406 1103.78 941.088C1102.82 942.77 1101.48 944.075 1099.78 945.001C1098.09 945.919 1096.15 946.378 1093.95 946.378C1091.51 946.378 1089.36 945.802 1087.5 944.651C1085.66 943.499 1084.22 941.862 1083.19 939.739C1082.16 937.616 1081.65 935.097 1081.65 932.182C1081.65 929.996 1081.94 928.03 1082.52 926.285C1083.12 924.531 1083.95 923.037 1085.03 921.805C1086.11 920.572 1087.39 919.628 1088.87 918.971C1090.34 918.314 1091.97 917.986 1093.74 917.986C1095.2 917.986 1096.55 918.206 1097.81 918.647C1099.08 919.079 1100.21 919.695 1101.2 920.496C1102.2 921.287 1103.03 922.237 1103.7 923.343C1104.36 924.441 1104.82 925.66 1105.07 927H1101.62Z" fill="black"/>
<path d="M1179.7 946V918.364H1196.27V921.332H1183.04V930.67H1195.02V933.639H1183.04V946H1179.7Z" fill="black"/>
<path d="M1272.64 946H1269.13L1279.28 918.364H1282.73L1292.88 946H1289.37L1281.11 922.736H1280.9L1272.64 946ZM1273.94 935.205H1288.08V938.173H1273.94V935.205Z" fill="black"/>
<path d="M1565.28 320.364L1573.48 343.628H1573.81L1582.01 320.364H1585.52L1575.37 348H1571.92L1561.77 320.364H1565.28ZM1596.15 348.432C1594.16 348.432 1592.43 347.991 1590.98 347.109C1589.55 346.219 1588.43 344.977 1587.65 343.385C1586.88 341.784 1586.49 339.921 1586.49 337.798C1586.49 335.675 1586.88 333.804 1587.65 332.185C1588.43 330.556 1589.52 329.288 1590.92 328.379C1592.32 327.462 1593.96 327.003 1595.83 327.003C1596.91 327.003 1597.97 327.183 1599.03 327.543C1600.08 327.902 1601.04 328.487 1601.9 329.297C1602.77 330.098 1603.45 331.159 1603.97 332.482C1604.48 333.804 1604.74 335.432 1604.74 337.366V338.716H1588.76V335.963H1601.5C1601.5 334.794 1601.26 333.75 1600.8 332.832C1600.34 331.915 1599.68 331.191 1598.82 330.66C1597.98 330.129 1596.98 329.864 1595.83 329.864C1594.56 329.864 1593.46 330.179 1592.54 330.808C1591.62 331.429 1590.91 332.239 1590.42 333.237C1589.92 334.236 1589.68 335.306 1589.68 336.449V338.284C1589.68 339.849 1589.95 341.176 1590.49 342.265C1591.03 343.344 1591.79 344.168 1592.77 344.734C1593.74 345.292 1594.87 345.571 1596.15 345.571C1596.99 345.571 1597.75 345.454 1598.42 345.22C1599.1 344.977 1599.69 344.617 1600.19 344.141C1600.68 343.655 1601.06 343.052 1601.33 342.332L1604.41 343.196C1604.09 344.24 1603.54 345.157 1602.78 345.949C1602.01 346.732 1601.07 347.343 1599.94 347.784C1598.82 348.216 1597.56 348.432 1596.15 348.432ZM1609.58 348V327.273H1612.66V330.403H1612.87C1613.25 329.378 1613.93 328.546 1614.92 327.907C1615.91 327.268 1617.03 326.949 1618.27 326.949C1618.5 326.949 1618.8 326.953 1619.15 326.962C1619.5 326.971 1619.76 326.985 1619.94 327.003V330.241C1619.84 330.214 1619.59 330.174 1619.2 330.12C1618.82 330.057 1618.42 330.026 1618 330.026C1616.99 330.026 1616.09 330.237 1615.3 330.66C1614.52 331.074 1613.9 331.649 1613.44 332.387C1612.99 333.116 1612.76 333.948 1612.76 334.884V348H1609.58ZM1623.72 348V327.273H1626.9V348H1623.72ZM1625.34 323.818C1624.72 323.818 1624.18 323.607 1623.73 323.184C1623.29 322.761 1623.07 322.253 1623.07 321.659C1623.07 321.065 1623.29 320.557 1623.73 320.134C1624.18 319.711 1624.72 319.5 1625.34 319.5C1625.96 319.5 1626.49 319.711 1626.93 320.134C1627.38 320.557 1627.6 321.065 1627.6 321.659C1627.6 322.253 1627.38 322.761 1626.93 323.184C1626.49 323.607 1625.96 323.818 1625.34 323.818ZM1641.97 327.273V329.972H1630.79V327.273H1641.97ZM1634.14 348V324.412C1634.14 323.224 1634.42 322.235 1634.98 321.443C1635.53 320.652 1636.26 320.058 1637.15 319.662C1638.04 319.266 1638.98 319.068 1639.97 319.068C1640.75 319.068 1641.39 319.131 1641.89 319.257C1642.38 319.383 1642.75 319.5 1642.99 319.608L1642.07 322.361C1641.91 322.307 1641.69 322.239 1641.4 322.158C1641.12 322.077 1640.75 322.037 1640.29 322.037C1639.24 322.037 1638.48 322.302 1638.01 322.833C1637.55 323.364 1637.32 324.142 1637.32 325.168V348H1634.14ZM1646.43 348V327.273H1649.61V348H1646.43ZM1648.05 323.818C1647.43 323.818 1646.89 323.607 1646.44 323.184C1646 322.761 1645.78 322.253 1645.78 321.659C1645.78 321.065 1646 320.557 1646.44 320.134C1646.89 319.711 1647.43 319.5 1648.05 319.5C1648.67 319.5 1649.2 319.711 1649.64 320.134C1650.09 320.557 1650.32 321.065 1650.32 321.659C1650.32 322.253 1650.09 322.761 1649.64 323.184C1649.2 323.607 1648.67 323.818 1648.05 323.818ZM1663.87 348.432C1661.92 348.432 1660.25 347.973 1658.85 347.055C1657.44 346.138 1656.36 344.874 1655.61 343.263C1654.85 341.653 1654.48 339.813 1654.48 337.744C1654.48 335.639 1654.86 333.781 1655.64 332.171C1656.42 330.552 1657.51 329.288 1658.9 328.379C1660.3 327.462 1661.94 327.003 1663.81 327.003C1665.27 327.003 1666.58 327.273 1667.75 327.812C1668.92 328.352 1669.88 329.108 1670.63 330.08C1671.37 331.051 1671.84 332.185 1672.02 333.48H1668.83C1668.59 332.536 1668.05 331.699 1667.21 330.97C1666.39 330.232 1665.27 329.864 1663.87 329.864C1662.63 329.864 1661.54 330.187 1660.6 330.835C1659.68 331.474 1658.95 332.378 1658.43 333.548C1657.92 334.708 1657.66 336.071 1657.66 337.636C1657.66 339.238 1657.91 340.632 1658.42 341.82C1658.93 343.007 1659.65 343.929 1660.57 344.586C1661.51 345.243 1662.61 345.571 1663.87 345.571C1664.7 345.571 1665.45 345.427 1666.12 345.139C1666.8 344.851 1667.37 344.438 1667.83 343.898C1668.3 343.358 1668.64 342.71 1668.83 341.955H1672.02C1671.84 343.178 1671.39 344.28 1670.68 345.261C1669.98 346.232 1669.05 347.006 1667.89 347.582C1666.74 348.148 1665.4 348.432 1663.87 348.432ZM1682.77 348.486C1681.46 348.486 1680.27 348.238 1679.2 347.744C1678.13 347.24 1677.28 346.516 1676.65 345.571C1676.02 344.617 1675.7 343.466 1675.7 342.116C1675.7 340.929 1675.94 339.966 1676.4 339.229C1676.87 338.482 1677.5 337.897 1678.28 337.474C1679.06 337.052 1679.93 336.737 1680.87 336.53C1681.82 336.314 1682.78 336.143 1683.74 336.017C1685 335.855 1686.03 335.734 1686.81 335.653C1687.6 335.563 1688.18 335.414 1688.54 335.207C1688.9 335 1689.09 334.641 1689.09 334.128V334.02C1689.09 332.688 1688.72 331.654 1688 330.916C1687.28 330.179 1686.18 329.81 1684.72 329.81C1683.2 329.81 1682 330.143 1681.14 330.808C1680.28 331.474 1679.67 332.185 1679.32 332.94L1676.3 331.861C1676.84 330.601 1677.56 329.621 1678.45 328.919C1679.36 328.208 1680.35 327.714 1681.42 327.435C1682.5 327.147 1683.56 327.003 1684.61 327.003C1685.27 327.003 1686.04 327.084 1686.9 327.246C1687.77 327.399 1688.62 327.718 1689.43 328.204C1690.24 328.69 1690.92 329.423 1691.46 330.403C1692 331.384 1692.27 332.697 1692.27 334.344V348H1689.09V345.193H1688.93C1688.71 345.643 1688.35 346.124 1687.85 346.637C1687.34 347.15 1686.67 347.586 1685.84 347.946C1685 348.306 1683.98 348.486 1682.77 348.486ZM1683.26 345.625C1684.52 345.625 1685.58 345.378 1686.44 344.883C1687.32 344.388 1687.97 343.749 1688.41 342.967C1688.86 342.184 1689.09 341.361 1689.09 340.497V337.582C1688.95 337.744 1688.66 337.893 1688.2 338.028C1687.75 338.154 1687.23 338.266 1686.63 338.365C1686.05 338.455 1685.48 338.536 1684.92 338.608C1684.37 338.671 1683.92 338.725 1683.58 338.77C1682.76 338.878 1681.98 339.053 1681.26 339.296C1680.55 339.53 1679.98 339.885 1679.53 340.362C1679.1 340.83 1678.89 341.469 1678.89 342.278C1678.89 343.385 1679.3 344.222 1680.11 344.788C1680.94 345.346 1681.99 345.625 1683.26 345.625ZM1707.1 327.273V329.972H1696.36V327.273H1707.1ZM1699.49 322.307H1702.67V342.062C1702.67 342.962 1702.8 343.637 1703.07 344.087C1703.33 344.527 1703.68 344.824 1704.09 344.977C1704.51 345.121 1704.96 345.193 1705.43 345.193C1705.78 345.193 1706.07 345.175 1706.29 345.139C1706.52 345.094 1706.7 345.058 1706.83 345.031L1707.48 347.892C1707.26 347.973 1706.96 348.054 1706.57 348.135C1706.19 348.225 1705.7 348.27 1705.1 348.27C1704.2 348.27 1703.32 348.076 1702.46 347.69C1701.6 347.303 1700.89 346.714 1700.33 345.922C1699.77 345.13 1699.49 344.132 1699.49 342.926V322.307ZM1711.89 348V327.273H1715.08V348H1711.89ZM1713.51 323.818C1712.89 323.818 1712.35 323.607 1711.9 323.184C1711.46 322.761 1711.24 322.253 1711.24 321.659C1711.24 321.065 1711.46 320.557 1711.9 320.134C1712.35 319.711 1712.89 319.5 1713.51 319.5C1714.13 319.5 1714.66 319.711 1715.1 320.134C1715.55 320.557 1715.78 321.065 1715.78 321.659C1715.78 322.253 1715.55 322.761 1715.1 323.184C1714.66 323.607 1714.13 323.818 1713.51 323.818ZM1729.33 348.432C1727.46 348.432 1725.82 347.987 1724.4 347.096C1723 346.205 1721.9 344.959 1721.11 343.358C1720.33 341.757 1719.94 339.885 1719.94 337.744C1719.94 335.585 1720.33 333.701 1721.11 332.09C1721.9 330.48 1723 329.229 1724.4 328.339C1725.82 327.448 1727.46 327.003 1729.33 327.003C1731.2 327.003 1732.84 327.448 1734.24 328.339C1735.65 329.229 1736.75 330.48 1737.53 332.09C1738.32 333.701 1738.72 335.585 1738.72 337.744C1738.72 339.885 1738.32 341.757 1737.53 343.358C1736.75 344.959 1735.65 346.205 1734.24 347.096C1732.84 347.987 1731.2 348.432 1729.33 348.432ZM1729.33 345.571C1730.75 345.571 1731.92 345.207 1732.84 344.478C1733.75 343.749 1734.43 342.791 1734.87 341.604C1735.32 340.416 1735.54 339.13 1735.54 337.744C1735.54 336.359 1735.32 335.068 1734.87 333.871C1734.43 332.675 1733.75 331.708 1732.84 330.97C1731.92 330.232 1730.75 329.864 1729.33 329.864C1727.91 329.864 1726.74 330.232 1725.82 330.97C1724.9 331.708 1724.22 332.675 1723.78 333.871C1723.34 335.068 1723.12 336.359 1723.12 337.744C1723.12 339.13 1723.34 340.416 1723.78 341.604C1724.22 342.791 1724.9 343.749 1725.82 344.478C1726.74 345.207 1727.91 345.571 1729.33 345.571ZM1746.77 335.531V348H1743.58V327.273H1746.66V330.511H1746.93C1747.41 329.459 1748.15 328.613 1749.14 327.974C1750.13 327.327 1751.41 327.003 1752.97 327.003C1754.38 327.003 1755.61 327.291 1756.66 327.866C1757.71 328.433 1758.53 329.297 1759.11 330.457C1759.7 331.609 1759.99 333.066 1759.99 334.83V348H1756.81V335.045C1756.81 333.417 1756.38 332.149 1755.54 331.24C1754.69 330.322 1753.53 329.864 1752.06 329.864C1751.04 329.864 1750.13 330.084 1749.33 330.525C1748.54 330.966 1747.91 331.609 1747.45 332.455C1747 333.3 1746.77 334.326 1746.77 335.531ZM1784.92 348.432C1782.98 348.432 1781.3 347.973 1779.9 347.055C1778.49 346.138 1777.42 344.874 1776.66 343.263C1775.9 341.653 1775.53 339.813 1775.53 337.744C1775.53 335.639 1775.91 333.781 1776.69 332.171C1777.47 330.552 1778.56 329.288 1779.95 328.379C1781.36 327.462 1782.99 327.003 1784.86 327.003C1786.32 327.003 1787.64 327.273 1788.8 327.812C1789.97 328.352 1790.93 329.108 1791.68 330.08C1792.43 331.051 1792.89 332.185 1793.07 333.48H1789.88C1789.64 332.536 1789.1 331.699 1788.26 330.97C1787.44 330.232 1786.32 329.864 1784.92 329.864C1783.68 329.864 1782.59 330.187 1781.65 330.835C1780.73 331.474 1780 332.378 1779.48 333.548C1778.97 334.708 1778.71 336.071 1778.71 337.636C1778.71 339.238 1778.96 340.632 1779.47 341.82C1779.98 343.007 1780.7 343.929 1781.63 344.586C1782.56 345.243 1783.66 345.571 1784.92 345.571C1785.75 345.571 1786.5 345.427 1787.17 345.139C1787.85 344.851 1788.42 344.438 1788.89 343.898C1789.35 343.358 1789.69 342.71 1789.88 341.955H1793.07C1792.89 343.178 1792.44 344.28 1791.73 345.261C1791.03 346.232 1790.1 347.006 1788.94 347.582C1787.79 348.148 1786.45 348.432 1784.92 348.432ZM1806.14 348.432C1804.27 348.432 1802.63 347.987 1801.22 347.096C1799.82 346.205 1798.72 344.959 1797.93 343.358C1797.14 341.757 1796.75 339.885 1796.75 337.744C1796.75 335.585 1797.14 333.701 1797.93 332.09C1798.72 330.48 1799.82 329.229 1801.22 328.339C1802.63 327.448 1804.27 327.003 1806.14 327.003C1808.02 327.003 1809.65 327.448 1811.06 328.339C1812.47 329.229 1813.57 330.48 1814.35 332.09C1815.14 333.701 1815.54 335.585 1815.54 337.744C1815.54 339.885 1815.14 341.757 1814.35 343.358C1813.57 344.959 1812.47 346.205 1811.06 347.096C1809.65 347.987 1808.02 348.432 1806.14 348.432ZM1806.14 345.571C1807.57 345.571 1808.74 345.207 1809.65 344.478C1810.57 343.749 1811.25 342.791 1811.69 341.604C1812.13 340.416 1812.35 339.13 1812.35 337.744C1812.35 336.359 1812.13 335.068 1811.69 333.871C1811.25 332.675 1810.57 331.708 1809.65 330.97C1808.74 330.232 1807.57 329.864 1806.14 329.864C1804.72 329.864 1803.55 330.232 1802.64 330.97C1801.72 331.708 1801.04 332.675 1800.6 333.871C1800.16 335.068 1799.94 336.359 1799.94 337.744C1799.94 339.13 1800.16 340.416 1800.6 341.604C1801.04 342.791 1801.72 343.749 1802.64 344.478C1803.55 345.207 1804.72 345.571 1806.14 345.571ZM1828.22 348.432C1826.5 348.432 1824.97 347.996 1823.65 347.123C1822.33 346.241 1821.29 345 1820.55 343.398C1819.8 341.788 1819.43 339.885 1819.43 337.69C1819.43 335.513 1819.8 333.624 1820.55 332.023C1821.29 330.421 1822.33 329.184 1823.66 328.312C1825 327.439 1826.53 327.003 1828.28 327.003C1829.63 327.003 1830.69 327.228 1831.48 327.678C1832.27 328.118 1832.87 328.622 1833.29 329.189C1833.71 329.747 1834.04 330.205 1834.27 330.565H1834.54V320.364H1837.72V348H1834.65V344.815H1834.27C1834.04 345.193 1833.7 345.67 1833.27 346.246C1832.84 346.812 1832.22 347.321 1831.42 347.771C1830.62 348.211 1829.56 348.432 1828.22 348.432ZM1828.66 345.571C1829.93 345.571 1831.01 345.238 1831.9 344.572C1832.78 343.898 1833.45 342.967 1833.91 341.779C1834.36 340.583 1834.59 339.202 1834.59 337.636C1834.59 336.089 1834.37 334.735 1833.92 333.575C1833.47 332.405 1832.8 331.496 1831.92 330.849C1831.04 330.192 1829.95 329.864 1828.66 329.864C1827.31 329.864 1826.18 330.21 1825.28 330.903C1824.39 331.586 1823.72 332.518 1823.27 333.696C1822.83 334.866 1822.61 336.179 1822.61 337.636C1822.61 339.112 1822.84 340.452 1823.29 341.658C1823.74 342.854 1824.42 343.808 1825.31 344.518C1826.21 345.22 1827.33 345.571 1828.66 345.571ZM1852.69 348.432C1850.69 348.432 1848.97 347.991 1847.52 347.109C1846.08 346.219 1844.97 344.977 1844.19 343.385C1843.41 341.784 1843.03 339.921 1843.03 337.798C1843.03 335.675 1843.41 333.804 1844.19 332.185C1844.97 330.556 1846.06 329.288 1847.45 328.379C1848.86 327.462 1850.49 327.003 1852.37 327.003C1853.45 327.003 1854.51 327.183 1855.56 327.543C1856.62 327.902 1857.58 328.487 1858.44 329.297C1859.3 330.098 1859.99 331.159 1860.5 332.482C1861.02 333.804 1861.27 335.432 1861.27 337.366V338.716H1845.3V335.963H1858.03C1858.03 334.794 1857.8 333.75 1857.33 332.832C1856.87 331.915 1856.22 331.191 1855.36 330.66C1854.52 330.129 1853.52 329.864 1852.37 329.864C1851.1 329.864 1850 330.179 1849.07 330.808C1848.16 331.429 1847.45 332.239 1846.95 333.237C1846.46 334.236 1846.21 335.306 1846.21 336.449V338.284C1846.21 339.849 1846.48 341.176 1847.02 342.265C1847.57 343.344 1848.33 344.168 1849.3 344.734C1850.27 345.292 1851.4 345.571 1852.69 345.571C1853.53 345.571 1854.28 345.454 1854.96 345.22C1855.64 344.977 1856.23 344.617 1856.72 344.141C1857.22 343.655 1857.6 343.052 1857.87 342.332L1860.95 343.196C1860.62 344.24 1860.08 345.157 1859.32 345.949C1858.55 346.732 1857.61 347.343 1856.48 347.784C1855.36 348.216 1854.09 348.432 1852.69 348.432Z" fill="black"/>
<rect x="1582" y="409" width="264" height="13" fill="#D9D9D9"/>
<rect x="1582" y="439" width="264" height="13" fill="#D9D9D9"/>
<rect x="1554.5" y="498.5" width="44" height="41" stroke="#616161"/>
<rect x="1605.5" y="498.5" width="45" height="41" stroke="#616161"/>
<rect x="1656.5" y="498.5" width="45" height="41" stroke="#616161"/>
<rect x="1725.5" y="498.5" width="45" height="41" stroke="#616161"/>
<rect x="1776.5" y="498.5" width="45" height="41" stroke="#616161"/>
<rect x="1828.5" y="498.5" width="44" height="41" stroke="#616161"/>
<rect x="1582" y="586" width="264" height="68" fill="#D9D9D9"/>
</g>
<defs>
<filter id="filter0_dd_2072_251" x="-11" y="-7" width="2394" height="77" filterUnits="userSpaceOnUse" color-interpolation-filters="sRGB">
<feFlood flood-opacity="0" result="BackgroundImageFix"/>
<feColorMatrix in="SourceAlpha" type="matrix" values="0 0 0 0 0 0 0 0 0 0 0 0 0 0 0 0 0 0 127 0" result="hardAlpha"/>
<feOffset dy="1"/>
<feGaussianBlur stdDeviation="1.5"/>
<feColorMatrix type="matrix" values="0 0 0 0 0 0 0 0 0 0 0 0 0 0 0 0 0 0 0.3 0"/>
<feBlend mode="normal" in2="BackgroundImageFix" result="effect1_dropShadow_2072_251"/>
<feColorMatrix in="SourceAlpha" type="matrix" values="0 0 0 0 0 0 0 0 0 0 0 0 0 0 0 0 0 0 127 0" result="hardAlpha"/>
<feMorphology radius="3" operator="dilate" in="SourceAlpha" result="effect2_dropShadow_2072_251"/>
<feOffset dy="4"/>
<feGaussianBlur stdDeviation="4"/>
<feColorMatrix type="matrix" values="0 0 0 0 0 0 0 0 0 0 0 0 0 0 0 0 0 0 0.15 0"/>
<feBlend mode="normal" in2="effect1_dropShadow_2072_251" result="effect2_dropShadow_2072_251"/>
<feBlend mode="normal" in="SourceGraphic" in2="effect2_dropShadow_2072_251" result="shape"/>
</filter>
<clipPath id="clip0_2072_251">
<rect width="2372" height="1198" fill="white"/>
</clipPath>
</defs>
</svg>
