<svg width="2372" height="1198" viewBox="0 0 2372 1198" fill="none" xmlns="http://www.w3.org/2000/svg">
<g clip-path="url(#clip0_2095_78)">
<rect width="2372" height="1198" fill="white"/>
<rect x="438.5" y="179.5" width="451" height="924" fill="#F8F7F7" stroke="#ACACAC"/>
<rect x="962.5" y="179.5" width="451" height="924" fill="#F8F7F7" stroke="#ACACAC"/>
<rect x="1494.5" y="179.5" width="451" height="924" fill="#F8F7F7" stroke="#ACACAC"/>
<g filter="url(#filter0_dd_2095_78)">
<rect width="2372" height="55" rx="4" fill="black"/>
<path d="M17.1477 30V18.3636H19.2557V28.233H24.3807V30H17.1477ZM29.9261 30.1705C29.0739 30.1705 28.3352 29.983 27.7102 29.608C27.0852 29.233 26.6004 28.7083 26.2557 28.0341C25.9148 27.3598 25.7443 26.572 25.7443 25.6705C25.7443 24.7689 25.9148 23.9792 26.2557 23.3011C26.6004 22.6231 27.0852 22.0966 27.7102 21.7216C28.3352 21.3466 29.0739 21.1591 29.9261 21.1591C30.7784 21.1591 31.517 21.3466 32.142 21.7216C32.767 22.0966 33.25 22.6231 33.5909 23.3011C33.9356 23.9792 34.108 24.7689 34.108 25.6705C34.108 26.572 33.9356 27.3598 33.5909 28.0341C33.25 28.7083 32.767 29.233 32.142 29.608C31.517 29.983 30.7784 30.1705 29.9261 30.1705ZM29.9375 28.5227C30.3996 28.5227 30.786 28.3958 31.0966 28.142C31.4072 27.8845 31.6383 27.5398 31.7898 27.108C31.9451 26.6761 32.0227 26.1951 32.0227 25.6648C32.0227 25.1307 31.9451 24.6477 31.7898 24.2159C31.6383 23.7803 31.4072 23.4337 31.0966 23.1761C30.786 22.9186 30.3996 22.7898 29.9375 22.7898C29.464 22.7898 29.0701 22.9186 28.7557 23.1761C28.4451 23.4337 28.2121 23.7803 28.0568 24.2159C27.9053 24.6477 27.8295 25.1307 27.8295 25.6648C27.8295 26.1951 27.9053 26.6761 28.0568 27.108C28.2121 27.5398 28.4451 27.8845 28.7557 28.142C29.0701 28.3958 29.464 28.5227 29.9375 28.5227ZM41.1435 24.3068V26H35.9048V24.3068H41.1435ZM43.3977 30V18.3636H50.8523V20.1307H45.5057V23.2898H50.3409V25.0568H45.5057V30H43.3977ZM52.6818 30V21.2727H54.7386V30H52.6818ZM53.7159 20.0341C53.3902 20.0341 53.1098 19.9261 52.875 19.7102C52.6402 19.4905 52.5227 19.2273 52.5227 18.9205C52.5227 18.6098 52.6402 18.3466 52.875 18.1307C53.1098 17.911 53.3902 17.8011 53.7159 17.8011C54.0455 17.8011 54.3258 17.911 54.5568 18.1307C54.7917 18.3466 54.9091 18.6098 54.9091 18.9205C54.9091 19.2273 54.7917 19.4905 54.5568 19.7102C54.3258 19.9261 54.0455 20.0341 53.7159 20.0341ZM60.9134 30V18.3636H65.277C66.1709 18.3636 66.9209 18.5303 67.527 18.8636C68.1368 19.197 68.5971 19.6553 68.9077 20.2386C69.2221 20.8182 69.3793 21.4773 69.3793 22.2159C69.3793 22.9621 69.2221 23.625 68.9077 24.2045C68.5933 24.7841 68.1293 25.2405 67.5156 25.5739C66.902 25.9034 66.1463 26.0682 65.2486 26.0682H62.3565V24.3352H64.9645C65.4872 24.3352 65.9152 24.2443 66.2486 24.0625C66.5819 23.8807 66.8281 23.6307 66.9872 23.3125C67.1501 22.9943 67.2315 22.6288 67.2315 22.2159C67.2315 21.803 67.1501 21.4394 66.9872 21.125C66.8281 20.8106 66.58 20.5663 66.2429 20.392C65.9096 20.214 65.4796 20.125 64.9531 20.125H63.0213V30H60.9134ZM71.1193 30V21.2727H73.1136V22.7273H73.2045C73.3636 22.2235 73.6364 21.8352 74.0227 21.5625C74.4129 21.286 74.858 21.1477 75.358 21.1477C75.4716 21.1477 75.5985 21.1534 75.7386 21.1648C75.8826 21.1723 76.0019 21.1856 76.0966 21.2045V23.0966C76.0095 23.0663 75.8712 23.0398 75.6818 23.017C75.4962 22.9905 75.3163 22.9773 75.142 22.9773C74.767 22.9773 74.4299 23.0587 74.1307 23.2216C73.8352 23.3807 73.6023 23.6023 73.4318 23.8864C73.2614 24.1705 73.1761 24.4981 73.1761 24.8693V30H71.1193ZM80.9105 30.1705C80.0582 30.1705 79.3196 29.983 78.6946 29.608C78.0696 29.233 77.5848 28.7083 77.2401 28.0341C76.8991 27.3598 76.7287 26.572 76.7287 25.6705C76.7287 24.7689 76.8991 23.9792 77.2401 23.3011C77.5848 22.6231 78.0696 22.0966 78.6946 21.7216C79.3196 21.3466 80.0582 21.1591 80.9105 21.1591C81.7628 21.1591 82.5014 21.3466 83.1264 21.7216C83.7514 22.0966 84.2344 22.6231 84.5753 23.3011C84.92 23.9792 85.0923 24.7689 85.0923 25.6705C85.0923 26.572 84.92 27.3598 84.5753 28.0341C84.2344 28.7083 83.7514 29.233 83.1264 29.608C82.5014 29.983 81.7628 30.1705 80.9105 30.1705ZM80.9219 28.5227C81.384 28.5227 81.7704 28.3958 82.081 28.142C82.3916 27.8845 82.6226 27.5398 82.7741 27.108C82.9295 26.6761 83.0071 26.1951 83.0071 25.6648C83.0071 25.1307 82.9295 24.6477 82.7741 24.2159C82.6226 23.7803 82.3916 23.4337 82.081 23.1761C81.7704 22.9186 81.384 22.7898 80.9219 22.7898C80.4484 22.7898 80.0545 22.9186 79.7401 23.1761C79.4295 23.4337 79.1965 23.7803 79.0412 24.2159C78.8897 24.6477 78.8139 25.1307 78.8139 25.6648C78.8139 26.1951 78.8897 26.6761 79.0412 27.108C79.1965 27.5398 79.4295 27.8845 79.7401 28.142C80.0545 28.3958 80.4484 28.5227 80.9219 28.5227ZM91.196 21.2727V22.8636H86.179V21.2727H91.196ZM87.4176 19.1818H89.4744V27.375C89.4744 27.6515 89.5161 27.8636 89.5994 28.0114C89.6866 28.1553 89.8002 28.2538 89.9403 28.3068C90.0805 28.3598 90.2358 28.3864 90.4062 28.3864C90.535 28.3864 90.6525 28.3769 90.7585 28.358C90.8684 28.339 90.9517 28.322 91.0085 28.3068L91.3551 29.9148C91.2453 29.9527 91.0881 29.9943 90.8835 30.0398C90.6828 30.0852 90.4366 30.1117 90.1449 30.1193C89.6297 30.1345 89.1657 30.0568 88.7528 29.8864C88.34 29.7121 88.0123 29.4432 87.7699 29.0795C87.5313 28.7159 87.4138 28.2614 87.4176 27.7159V19.1818ZM96.6293 30.1705C95.777 30.1705 95.0384 29.983 94.4134 29.608C93.7884 29.233 93.3035 28.7083 92.9588 28.0341C92.6179 27.3598 92.4474 26.572 92.4474 25.6705C92.4474 24.7689 92.6179 23.9792 92.9588 23.3011C93.3035 22.6231 93.7884 22.0966 94.4134 21.7216C95.0384 21.3466 95.777 21.1591 96.6293 21.1591C97.4815 21.1591 98.2202 21.3466 98.8452 21.7216C99.4702 22.0966 99.9531 22.6231 100.294 23.3011C100.639 23.9792 100.811 24.7689 100.811 25.6705C100.811 26.572 100.639 27.3598 100.294 28.0341C99.9531 28.7083 99.4702 29.233 98.8452 29.608C98.2202 29.983 97.4815 30.1705 96.6293 30.1705ZM96.6406 28.5227C97.1027 28.5227 97.4891 28.3958 97.7997 28.142C98.1103 27.8845 98.3414 27.5398 98.4929 27.108C98.6482 26.6761 98.7259 26.1951 98.7259 25.6648C98.7259 25.1307 98.6482 24.6477 98.4929 24.2159C98.3414 23.7803 98.1103 23.4337 97.7997 23.1761C97.4891 22.9186 97.1027 22.7898 96.6406 22.7898C96.1671 22.7898 95.7732 22.9186 95.4588 23.1761C95.1482 23.4337 94.9152 23.7803 94.7599 24.2159C94.6084 24.6477 94.5327 25.1307 94.5327 25.6648C94.5327 26.1951 94.6084 26.6761 94.7599 27.108C94.9152 27.5398 95.1482 27.8845 95.4588 28.142C95.7732 28.3958 96.1671 28.5227 96.6406 28.5227ZM106.915 21.2727V22.8636H101.898V21.2727H106.915ZM103.136 19.1818H105.193V27.375C105.193 27.6515 105.235 27.8636 105.318 28.0114C105.405 28.1553 105.519 28.2538 105.659 28.3068C105.799 28.3598 105.955 28.3864 106.125 28.3864C106.254 28.3864 106.371 28.3769 106.477 28.358C106.587 28.339 106.67 28.322 106.727 28.3068L107.074 29.9148C106.964 29.9527 106.807 29.9943 106.602 30.0398C106.402 30.0852 106.155 30.1117 105.864 30.1193C105.348 30.1345 104.884 30.0568 104.472 29.8864C104.059 29.7121 103.731 29.4432 103.489 29.0795C103.25 28.7159 103.133 28.2614 103.136 27.7159V19.1818ZM109.913 33.2727C109.633 33.2727 109.374 33.25 109.135 33.2045C108.9 33.1629 108.713 33.1136 108.572 33.0568L109.05 31.4545C109.349 31.5417 109.616 31.5833 109.851 31.5795C110.086 31.5758 110.292 31.5019 110.47 31.358C110.652 31.2178 110.805 30.983 110.93 30.6534L111.107 30.1818L107.942 21.2727H110.124L112.135 27.8636H112.226L114.243 21.2727H116.43L112.936 31.0568C112.773 31.5189 112.557 31.9148 112.288 32.2443C112.019 32.5777 111.69 32.8314 111.3 33.0057C110.913 33.1837 110.451 33.2727 109.913 33.2727ZM117.854 33.2727V21.2727H119.876V22.7159H119.996C120.102 22.5038 120.251 22.2784 120.445 22.0398C120.638 21.7973 120.899 21.5909 121.229 21.4205C121.558 21.2462 121.979 21.1591 122.49 21.1591C123.164 21.1591 123.772 21.3314 124.314 21.6761C124.859 22.017 125.291 22.5227 125.609 23.1932C125.931 23.8598 126.092 24.678 126.092 25.6477C126.092 26.6061 125.935 27.4205 125.621 28.0909C125.306 28.7614 124.878 29.2727 124.337 29.625C123.795 29.9773 123.181 30.1534 122.496 30.1534C121.996 30.1534 121.581 30.0701 121.251 29.9034C120.922 29.7367 120.657 29.536 120.456 29.3011C120.259 29.0625 120.106 28.8371 119.996 28.625H119.911V33.2727H117.854ZM119.871 25.6364C119.871 26.2008 119.95 26.6951 120.109 27.1193C120.272 27.5436 120.505 27.875 120.808 28.1136C121.115 28.3485 121.486 28.4659 121.922 28.4659C122.376 28.4659 122.757 28.3447 123.064 28.1023C123.371 27.8561 123.602 27.5208 123.757 27.0966C123.916 26.6686 123.996 26.1818 123.996 25.6364C123.996 25.0947 123.918 24.6136 123.763 24.1932C123.607 23.7727 123.376 23.4432 123.07 23.2045C122.763 22.9659 122.38 22.8466 121.922 22.8466C121.482 22.8466 121.109 22.9621 120.803 23.1932C120.496 23.4242 120.263 23.7481 120.104 24.1648C119.948 24.5814 119.871 25.072 119.871 25.6364ZM131.717 30.1705C130.842 30.1705 130.087 29.9886 129.45 29.625C128.818 29.2576 128.331 28.7386 127.99 28.0682C127.649 27.3939 127.479 26.6004 127.479 25.6875C127.479 24.7898 127.649 24.0019 127.99 23.3239C128.335 22.642 128.816 22.1117 129.433 21.733C130.051 21.3504 130.776 21.1591 131.609 21.1591C132.147 21.1591 132.655 21.2462 133.132 21.4205C133.613 21.5909 134.037 21.8561 134.405 22.2159C134.776 22.5758 135.068 23.0341 135.28 23.5909C135.492 24.1439 135.598 24.803 135.598 25.5682V26.1989H128.445V24.8125H133.626C133.623 24.4186 133.537 24.0682 133.371 23.7614C133.204 23.4508 132.971 23.2064 132.672 23.0284C132.376 22.8504 132.032 22.7614 131.638 22.7614C131.217 22.7614 130.848 22.8636 130.53 23.0682C130.212 23.2689 129.964 23.5341 129.786 23.8636C129.611 24.1894 129.522 24.5473 129.518 24.9375V26.1477C129.518 26.6553 129.611 27.0909 129.797 27.4545C129.982 27.8144 130.242 28.0909 130.575 28.2841C130.909 28.4735 131.299 28.5682 131.746 28.5682C132.045 28.5682 132.316 28.5265 132.558 28.4432C132.801 28.3561 133.011 28.2292 133.189 28.0625C133.367 27.8958 133.501 27.6894 133.592 27.4432L135.513 27.6591C135.392 28.1667 135.161 28.6098 134.82 28.9886C134.482 29.3636 134.051 29.6553 133.524 29.8636C132.998 30.0682 132.395 30.1705 131.717 30.1705ZM146.597 23.3352V25.0284H141.358V23.3352H146.597ZM152.82 30V18.3636H160.388V20.1307H154.928V23.2898H159.996V25.0568H154.928V28.233H160.433V30H152.82ZM164.129 21.2727L165.891 24.4943L167.68 21.2727H169.857L167.226 25.6364L169.902 30H167.737L165.891 26.858L164.061 30H161.879L164.538 25.6364L161.947 21.2727H164.129ZM171.447 30V21.2727H173.504V30H171.447ZM172.482 20.0341C172.156 20.0341 171.875 19.9261 171.641 19.7102C171.406 19.4905 171.288 19.2273 171.288 18.9205C171.288 18.6098 171.406 18.3466 171.641 18.1307C171.875 17.911 172.156 17.8011 172.482 17.8011C172.811 17.8011 173.091 17.911 173.322 18.1307C173.557 18.3466 173.675 18.6098 173.675 18.9205C173.675 19.2273 173.557 19.4905 173.322 19.7102C173.091 19.9261 172.811 20.0341 172.482 20.0341ZM182.517 23.5795L180.642 23.7841C180.589 23.5947 180.496 23.4167 180.364 23.25C180.235 23.0833 180.061 22.9489 179.841 22.8466C179.621 22.7443 179.352 22.6932 179.034 22.6932C178.606 22.6932 178.246 22.786 177.955 22.9716C177.667 23.1572 177.525 23.3977 177.528 23.6932C177.525 23.947 177.617 24.1534 177.807 24.3125C178 24.4716 178.318 24.6023 178.761 24.7045L180.25 25.0227C181.076 25.2008 181.689 25.483 182.091 25.8693C182.496 26.2557 182.701 26.7614 182.705 27.3864C182.701 27.9356 182.54 28.4205 182.222 28.8409C181.907 29.2576 181.47 29.5833 180.909 29.8182C180.348 30.053 179.705 30.1705 178.977 30.1705C177.909 30.1705 177.049 29.947 176.398 29.5C175.746 29.0492 175.358 28.4223 175.233 27.6193L177.239 27.4261C177.33 27.8201 177.523 28.1174 177.818 28.3182C178.114 28.5189 178.498 28.6193 178.972 28.6193C179.46 28.6193 179.852 28.5189 180.148 28.3182C180.447 28.1174 180.597 27.8693 180.597 27.5739C180.597 27.3239 180.5 27.1174 180.307 26.9545C180.117 26.7917 179.822 26.6667 179.42 26.5795L177.932 26.267C177.095 26.0928 176.475 25.7992 176.074 25.3864C175.672 24.9697 175.473 24.4432 175.477 23.8068C175.473 23.2689 175.619 22.803 175.915 22.4091C176.214 22.0114 176.629 21.7045 177.159 21.4886C177.693 21.2689 178.309 21.1591 179.006 21.1591C180.028 21.1591 180.833 21.3769 181.42 21.8125C182.011 22.2481 182.377 22.8371 182.517 23.5795ZM188.759 21.2727V22.8636H183.741V21.2727H188.759ZM184.98 19.1818H187.037V27.375C187.037 27.6515 187.079 27.8636 187.162 28.0114C187.249 28.1553 187.363 28.2538 187.503 28.3068C187.643 28.3598 187.798 28.3864 187.969 28.3864C188.098 28.3864 188.215 28.3769 188.321 28.358C188.431 28.339 188.514 28.322 188.571 28.3068L188.918 29.9148C188.808 29.9527 188.651 29.9943 188.446 30.0398C188.245 30.0852 187.999 30.1117 187.707 30.1193C187.192 30.1345 186.728 30.0568 186.315 29.8864C185.902 29.7121 185.575 29.4432 185.332 29.0795C185.094 28.7159 184.976 28.2614 184.98 27.7159V19.1818ZM190.479 30V21.2727H192.536V30H190.479ZM191.513 20.0341C191.187 20.0341 190.907 19.9261 190.672 19.7102C190.437 19.4905 190.32 19.2273 190.32 18.9205C190.32 18.6098 190.437 18.3466 190.672 18.1307C190.907 17.911 191.187 17.8011 191.513 17.8011C191.842 17.8011 192.123 17.911 192.354 18.1307C192.589 18.3466 192.706 18.6098 192.706 18.9205C192.706 19.2273 192.589 19.4905 192.354 19.7102C192.123 19.9261 191.842 20.0341 191.513 20.0341ZM196.707 24.8864V30H194.651V21.2727H196.616V22.7557H196.719C196.92 22.267 197.24 21.8788 197.679 21.5909C198.122 21.303 198.67 21.1591 199.321 21.1591C199.923 21.1591 200.448 21.2879 200.895 21.5455C201.346 21.803 201.694 22.1761 201.94 22.6648C202.19 23.1534 202.313 23.7462 202.31 24.4432V30H200.253V24.7614C200.253 24.178 200.101 23.7216 199.798 23.392C199.499 23.0625 199.084 22.8977 198.554 22.8977C198.194 22.8977 197.874 22.9773 197.594 23.1364C197.317 23.2917 197.099 23.517 196.94 23.8125C196.785 24.108 196.707 24.4659 196.707 24.8864ZM208.196 33.4545C207.457 33.4545 206.823 33.3542 206.293 33.1534C205.762 32.9564 205.336 32.6913 205.014 32.358C204.692 32.0246 204.469 31.6553 204.344 31.25L206.196 30.8011C206.279 30.9716 206.401 31.1402 206.56 31.3068C206.719 31.4773 206.933 31.6174 207.202 31.7273C207.474 31.8409 207.817 31.8977 208.23 31.8977C208.813 31.8977 209.296 31.7557 209.679 31.4716C210.062 31.1913 210.253 30.7292 210.253 30.0852V28.4318H210.151C210.045 28.6439 209.889 28.8617 209.685 29.0852C209.484 29.3087 209.217 29.4962 208.884 29.6477C208.554 29.7992 208.139 29.875 207.639 29.875C206.969 29.875 206.361 29.7178 205.815 29.4034C205.274 29.0852 204.842 28.6117 204.52 27.983C204.202 27.3504 204.043 26.5587 204.043 25.608C204.043 24.6496 204.202 23.8409 204.52 23.1818C204.842 22.5189 205.276 22.017 205.821 21.6761C206.366 21.3314 206.974 21.1591 207.645 21.1591C208.156 21.1591 208.577 21.2462 208.906 21.4205C209.24 21.5909 209.505 21.7973 209.702 22.0398C209.899 22.2784 210.048 22.5038 210.151 22.7159H210.264V21.2727H212.293V30.142C212.293 30.8883 212.115 31.5057 211.759 31.9943C211.402 32.483 210.916 32.8485 210.298 33.0909C209.681 33.3333 208.98 33.4545 208.196 33.4545ZM208.213 28.2614C208.649 28.2614 209.02 28.1553 209.327 27.9432C209.634 27.7311 209.866 27.4261 210.026 27.0284C210.185 26.6307 210.264 26.1534 210.264 25.5966C210.264 25.0473 210.185 24.5663 210.026 24.1534C209.87 23.7405 209.639 23.4205 209.332 23.1932C209.029 22.9621 208.656 22.8466 208.213 22.8466C207.755 22.8466 207.372 22.9659 207.065 23.2045C206.759 23.4432 206.527 23.7708 206.372 24.1875C206.217 24.6004 206.139 25.0701 206.139 25.5966C206.139 26.1307 206.217 26.5985 206.372 27C206.531 27.3977 206.764 27.7083 207.071 27.9318C207.382 28.1515 207.762 28.2614 208.213 28.2614ZM225.795 18.3636H227.903V25.9659C227.903 26.7992 227.706 27.5322 227.312 28.1648C226.922 28.7973 226.373 29.2917 225.665 29.6477C224.956 30 224.129 30.1761 223.182 30.1761C222.231 30.1761 221.402 30 220.693 29.6477C219.985 29.2917 219.436 28.7973 219.045 28.1648C218.655 27.5322 218.46 26.7992 218.46 25.9659V18.3636H220.568V25.7898C220.568 26.2746 220.674 26.7064 220.886 27.0852C221.102 27.464 221.405 27.7614 221.795 27.9773C222.186 28.1894 222.648 28.2955 223.182 28.2955C223.716 28.2955 224.178 28.1894 224.568 27.9773C224.962 27.7614 225.265 27.464 225.477 27.0852C225.689 26.7064 225.795 26.2746 225.795 25.7898V18.3636ZM237.001 23.5795L235.126 23.7841C235.073 23.5947 234.981 23.4167 234.848 23.25C234.719 23.0833 234.545 22.9489 234.325 22.8466C234.106 22.7443 233.837 22.6932 233.518 22.6932C233.09 22.6932 232.731 22.786 232.439 22.9716C232.151 23.1572 232.009 23.3977 232.013 23.6932C232.009 23.947 232.102 24.1534 232.291 24.3125C232.484 24.4716 232.803 24.6023 233.246 24.7045L234.734 25.0227C235.56 25.2008 236.174 25.483 236.575 25.8693C236.981 26.2557 237.185 26.7614 237.189 27.3864C237.185 27.9356 237.024 28.4205 236.706 28.8409C236.392 29.2576 235.954 29.5833 235.393 29.8182C234.833 30.053 234.189 30.1705 233.462 30.1705C232.393 30.1705 231.534 29.947 230.882 29.5C230.231 29.0492 229.842 28.4223 229.717 27.6193L231.723 27.4261C231.814 27.8201 232.007 28.1174 232.303 28.3182C232.598 28.5189 232.982 28.6193 233.456 28.6193C233.945 28.6193 234.337 28.5189 234.632 28.3182C234.931 28.1174 235.081 27.8693 235.081 27.5739C235.081 27.3239 234.984 27.1174 234.791 26.9545C234.602 26.7917 234.306 26.6667 233.905 26.5795L232.416 26.267C231.579 26.0928 230.96 25.7992 230.558 25.3864C230.157 24.9697 229.958 24.4432 229.962 23.8068C229.958 23.2689 230.104 22.803 230.399 22.4091C230.698 22.0114 231.113 21.7045 231.643 21.4886C232.178 21.2689 232.793 21.1591 233.49 21.1591C234.513 21.1591 235.318 21.3769 235.905 21.8125C236.496 22.2481 236.861 22.8371 237.001 23.5795ZM242.749 30.1705C241.874 30.1705 241.118 29.9886 240.482 29.625C239.849 29.2576 239.362 28.7386 239.021 28.0682C238.68 27.3939 238.51 26.6004 238.51 25.6875C238.51 24.7898 238.68 24.0019 239.021 23.3239C239.366 22.642 239.847 22.1117 240.464 21.733C241.082 21.3504 241.807 21.1591 242.641 21.1591C243.179 21.1591 243.686 21.2462 244.163 21.4205C244.644 21.5909 245.069 21.8561 245.436 22.2159C245.807 22.5758 246.099 23.0341 246.311 23.5909C246.523 24.1439 246.629 24.803 246.629 25.5682V26.1989H239.476V24.8125H244.658C244.654 24.4186 244.569 24.0682 244.402 23.7614C244.235 23.4508 244.002 23.2064 243.703 23.0284C243.408 22.8504 243.063 22.7614 242.669 22.7614C242.249 22.7614 241.879 22.8636 241.561 23.0682C241.243 23.2689 240.995 23.5341 240.817 23.8636C240.643 24.1894 240.554 24.5473 240.55 24.9375V26.1477C240.55 26.6553 240.643 27.0909 240.828 27.4545C241.014 27.8144 241.273 28.0909 241.607 28.2841C241.94 28.4735 242.33 28.5682 242.777 28.5682C243.076 28.5682 243.347 28.5265 243.589 28.4432C243.832 28.3561 244.042 28.2292 244.22 28.0625C244.398 27.8958 244.533 27.6894 244.624 27.4432L246.544 27.6591C246.423 28.1667 246.192 28.6098 245.851 28.9886C245.514 29.3636 245.082 29.6553 244.555 29.8636C244.029 30.0682 243.427 30.1705 242.749 30.1705ZM248.369 30V21.2727H250.364V22.7273H250.455C250.614 22.2235 250.886 21.8352 251.273 21.5625C251.663 21.286 252.108 21.1477 252.608 21.1477C252.722 21.1477 252.848 21.1534 252.989 21.1648C253.133 21.1723 253.252 21.1856 253.347 21.2045V23.0966C253.259 23.0663 253.121 23.0398 252.932 23.017C252.746 22.9905 252.566 22.9773 252.392 22.9773C252.017 22.9773 251.68 23.0587 251.381 23.2216C251.085 23.3807 250.852 23.6023 250.682 23.8864C250.511 24.1705 250.426 24.4981 250.426 24.8693V30H248.369Z" fill="white"/>
</g>
<path d="M582.418 412L574.861 384.364H578.262L584.038 406.872H584.307L590.191 384.364H593.969L599.853 406.872H600.123L605.898 384.364H609.299L601.742 412H598.288L592.188 389.977H591.972L585.873 412H582.418ZM619.797 412.432C617.8 412.432 616.078 411.991 614.629 411.109C613.19 410.219 612.079 408.977 611.296 407.385C610.522 405.784 610.136 403.921 610.136 401.798C610.136 399.675 610.522 397.804 611.296 396.185C612.079 394.556 613.167 393.288 614.562 392.379C615.965 391.462 617.602 391.003 619.474 391.003C620.553 391.003 621.619 391.183 622.672 391.543C623.724 391.902 624.682 392.487 625.546 393.297C626.41 394.098 627.098 395.159 627.611 396.482C628.123 397.804 628.38 399.432 628.38 401.366V402.716H612.403V399.963H625.141C625.141 398.794 624.907 397.75 624.44 396.832C623.981 395.915 623.324 395.191 622.469 394.66C621.624 394.129 620.625 393.864 619.474 393.864C618.205 393.864 617.108 394.179 616.181 394.808C615.263 395.429 614.557 396.239 614.062 397.237C613.568 398.236 613.32 399.306 613.32 400.449V402.284C613.32 403.849 613.59 405.176 614.13 406.265C614.679 407.344 615.439 408.168 616.41 408.734C617.382 409.292 618.511 409.571 619.797 409.571C620.634 409.571 621.39 409.454 622.065 409.22C622.748 408.977 623.338 408.617 623.832 408.141C624.327 407.655 624.709 407.052 624.979 406.332L628.056 407.196C627.732 408.24 627.188 409.157 626.423 409.949C625.659 410.732 624.714 411.343 623.589 411.784C622.465 412.216 621.201 412.432 619.797 412.432ZM636.409 384.364V412H633.224V384.364H636.409ZM650.662 412.432C648.719 412.432 647.046 411.973 645.642 411.055C644.239 410.138 643.16 408.874 642.404 407.263C641.648 405.653 641.27 403.813 641.27 401.744C641.27 399.639 641.657 397.781 642.431 396.171C643.214 394.552 644.302 393.288 645.696 392.379C647.1 391.462 648.737 391.003 650.608 391.003C652.066 391.003 653.379 391.273 654.549 391.812C655.718 392.352 656.676 393.108 657.423 394.08C658.17 395.051 658.633 396.185 658.813 397.48H655.628C655.385 396.536 654.846 395.699 654.009 394.97C653.181 394.232 652.066 393.864 650.662 393.864C649.421 393.864 648.332 394.187 647.397 394.835C646.47 395.474 645.746 396.378 645.224 397.548C644.711 398.708 644.455 400.071 644.455 401.636C644.455 403.238 644.707 404.632 645.211 405.82C645.723 407.007 646.443 407.929 647.37 408.586C648.305 409.243 649.403 409.571 650.662 409.571C651.49 409.571 652.241 409.427 652.916 409.139C653.591 408.851 654.162 408.438 654.63 407.898C655.098 407.358 655.43 406.71 655.628 405.955H658.813C658.633 407.178 658.188 408.28 657.477 409.261C656.775 410.232 655.844 411.006 654.684 411.582C653.532 412.148 652.192 412.432 650.662 412.432ZM671.889 412.432C670.018 412.432 668.376 411.987 666.964 411.096C665.56 410.205 664.463 408.959 663.671 407.358C662.888 405.757 662.497 403.885 662.497 401.744C662.497 399.585 662.888 397.701 663.671 396.09C664.463 394.48 665.56 393.229 666.964 392.339C668.376 391.448 670.018 391.003 671.889 391.003C673.76 391.003 675.397 391.448 676.801 392.339C678.213 393.229 679.311 394.48 680.093 396.09C680.885 397.701 681.281 399.585 681.281 401.744C681.281 403.885 680.885 405.757 680.093 407.358C679.311 408.959 678.213 410.205 676.801 411.096C675.397 411.987 673.76 412.432 671.889 412.432ZM671.889 409.571C673.31 409.571 674.48 409.207 675.397 408.478C676.315 407.749 676.994 406.791 677.435 405.604C677.876 404.416 678.096 403.13 678.096 401.744C678.096 400.359 677.876 399.068 677.435 397.871C676.994 396.675 676.315 395.708 675.397 394.97C674.48 394.232 673.31 393.864 671.889 393.864C670.468 393.864 669.298 394.232 668.38 394.97C667.463 395.708 666.784 396.675 666.343 397.871C665.902 399.068 665.682 400.359 665.682 401.744C665.682 403.13 665.902 404.416 666.343 405.604C666.784 406.791 667.463 407.749 668.38 408.478C669.298 409.207 670.468 409.571 671.889 409.571ZM686.142 412V391.273H689.219V394.511H689.489C689.921 393.405 690.618 392.546 691.581 391.934C692.543 391.313 693.699 391.003 695.049 391.003C696.416 391.003 697.554 391.313 698.463 391.934C699.38 392.546 700.095 393.405 700.608 394.511H700.824C701.355 393.441 702.151 392.591 703.213 391.961C704.274 391.322 705.547 391.003 707.032 391.003C708.885 391.003 710.401 391.583 711.579 392.744C712.758 393.895 713.347 395.69 713.347 398.128V412H710.162V398.128C710.162 396.598 709.744 395.505 708.907 394.849C708.071 394.192 707.085 393.864 705.952 393.864C704.495 393.864 703.366 394.304 702.565 395.186C701.764 396.059 701.364 397.165 701.364 398.506V412H698.125V397.804C698.125 396.625 697.743 395.676 696.978 394.957C696.214 394.228 695.228 393.864 694.023 393.864C693.195 393.864 692.422 394.084 691.702 394.525C690.991 394.966 690.416 395.577 689.975 396.36C689.543 397.134 689.327 398.029 689.327 399.045V412H686.142ZM727.86 412.432C725.863 412.432 724.14 411.991 722.692 411.109C721.252 410.219 720.141 408.977 719.359 407.385C718.585 405.784 718.198 403.921 718.198 401.798C718.198 399.675 718.585 397.804 719.359 396.185C720.141 394.556 721.23 393.288 722.624 392.379C724.028 391.462 725.665 391.003 727.536 391.003C728.616 391.003 729.682 391.183 730.734 391.543C731.787 391.902 732.745 392.487 733.609 393.297C734.472 394.098 735.16 395.159 735.673 396.482C736.186 397.804 736.442 399.432 736.442 401.366V402.716H720.465V399.963H733.204C733.204 398.794 732.97 397.75 732.502 396.832C732.043 395.915 731.387 395.191 730.532 394.66C729.686 394.129 728.688 393.864 727.536 393.864C726.268 393.864 725.17 394.179 724.244 394.808C723.326 395.429 722.62 396.239 722.125 397.237C721.63 398.236 721.383 399.306 721.383 400.449V402.284C721.383 403.849 721.653 405.176 722.192 406.265C722.741 407.344 723.501 408.168 724.473 408.734C725.445 409.292 726.574 409.571 727.86 409.571C728.697 409.571 729.452 409.454 730.127 409.22C730.811 408.977 731.4 408.617 731.895 408.141C732.39 407.655 732.772 407.052 733.042 406.332L736.119 407.196C735.795 408.24 735.25 409.157 734.486 409.949C733.721 410.732 732.776 411.343 731.652 411.784C730.527 412.216 729.263 412.432 727.86 412.432ZM745.497 384.364L745.227 404.227H742.097L741.827 384.364H745.497ZM743.662 412.216C742.996 412.216 742.425 411.978 741.948 411.501C741.471 411.024 741.233 410.453 741.233 409.787C741.233 409.121 741.471 408.55 741.948 408.073C742.425 407.596 742.996 407.358 743.662 407.358C744.328 407.358 744.899 407.596 745.376 408.073C745.852 408.55 746.091 409.121 746.091 409.787C746.091 410.228 745.978 410.633 745.753 411.001C745.538 411.37 745.245 411.667 744.876 411.892C744.516 412.108 744.112 412.216 743.662 412.216Z" fill="black"/>
<rect x="532" y="474" width="264" height="13" fill="#D9D9D9"/>
<rect x="532" y="504" width="264" height="13" fill="#D9D9D9"/>
<rect x="532" y="764" width="264" height="68" fill="#D9D9D9"/>
<rect x="532" y="849" width="264" height="68" fill="#6D6D6D"/>
<path d="M590.317 806V788.545H600.851V790.42H592.43V796.318H600.305V798.193H592.43V804.125H600.987V806H590.317ZM605.888 792.909L609.024 798.261L612.161 792.909H614.479L610.251 799.455L614.479 806H612.161L609.024 800.92L605.888 806H603.57L607.729 799.455L603.57 792.909H605.888ZM617.349 806V792.909H619.36V806H617.349ZM618.371 790.727C617.979 790.727 617.641 790.594 617.357 790.327C617.079 790.06 616.94 789.739 616.94 789.364C616.94 788.989 617.079 788.668 617.357 788.401C617.641 788.134 617.979 788 618.371 788C618.763 788 619.099 788.134 619.377 788.401C619.661 788.668 619.803 788.989 619.803 789.364C619.803 789.739 619.661 790.06 619.377 790.327C619.099 790.594 618.763 790.727 618.371 790.727ZM632.317 795.841L630.51 796.352C630.396 796.051 630.229 795.759 630.007 795.474C629.791 795.185 629.496 794.946 629.121 794.759C628.746 794.571 628.266 794.477 627.68 794.477C626.879 794.477 626.212 794.662 625.678 795.031C625.149 795.395 624.885 795.858 624.885 796.42C624.885 796.92 625.067 797.315 625.43 797.605C625.794 797.895 626.362 798.136 627.135 798.33L629.078 798.807C630.249 799.091 631.121 799.526 631.695 800.111C632.268 800.69 632.555 801.437 632.555 802.352C632.555 803.102 632.339 803.773 631.908 804.364C631.482 804.955 630.885 805.42 630.118 805.761C629.351 806.102 628.459 806.273 627.442 806.273C626.107 806.273 625.001 805.983 624.126 805.403C623.251 804.824 622.697 803.977 622.464 802.864L624.374 802.386C624.555 803.091 624.899 803.619 625.405 803.972C625.916 804.324 626.584 804.5 627.408 804.5C628.345 804.5 629.089 804.301 629.641 803.903C630.197 803.5 630.476 803.017 630.476 802.455C630.476 802 630.317 801.619 629.999 801.312C629.68 801 629.192 800.767 628.533 800.614L626.351 800.102C625.152 799.818 624.271 799.378 623.709 798.781C623.152 798.179 622.874 797.426 622.874 796.523C622.874 795.784 623.081 795.131 623.496 794.562C623.916 793.994 624.487 793.548 625.209 793.224C625.936 792.901 626.76 792.739 627.68 792.739C628.976 792.739 629.993 793.023 630.732 793.591C631.476 794.159 632.004 794.909 632.317 795.841ZM641.276 792.909V794.614H634.492V792.909H641.276ZM636.469 789.773H638.481V802.25C638.481 802.818 638.563 803.244 638.728 803.528C638.898 803.807 639.114 803.994 639.376 804.091C639.643 804.182 639.924 804.227 640.219 804.227C640.441 804.227 640.623 804.216 640.765 804.193C640.907 804.165 641.021 804.142 641.106 804.125L641.515 805.932C641.379 805.983 641.188 806.034 640.944 806.085C640.7 806.142 640.39 806.17 640.015 806.17C639.447 806.17 638.89 806.048 638.344 805.804C637.805 805.56 637.356 805.188 636.998 804.688C636.646 804.188 636.469 803.557 636.469 802.795V789.773ZM644.302 806V792.909H646.313V806H644.302ZM645.325 790.727C644.933 790.727 644.594 790.594 644.31 790.327C644.032 790.06 643.893 789.739 643.893 789.364C643.893 788.989 644.032 788.668 644.31 788.401C644.594 788.134 644.933 788 645.325 788C645.717 788 646.052 788.134 646.33 788.401C646.614 788.668 646.756 788.989 646.756 789.364C646.756 789.739 646.614 790.06 646.33 790.327C646.052 790.594 645.717 790.727 645.325 790.727ZM652.009 798.125V806H649.997V792.909H651.94V794.955H652.111C652.418 794.29 652.884 793.756 653.509 793.352C654.134 792.943 654.94 792.739 655.929 792.739C656.815 792.739 657.591 792.92 658.256 793.284C658.92 793.642 659.438 794.188 659.807 794.92C660.176 795.648 660.361 796.568 660.361 797.682V806H658.349V797.818C658.349 796.79 658.082 795.989 657.548 795.415C657.014 794.835 656.281 794.545 655.349 794.545C654.707 794.545 654.134 794.685 653.628 794.963C653.128 795.241 652.733 795.648 652.443 796.182C652.153 796.716 652.009 797.364 652.009 798.125ZM669.32 811.182C668.349 811.182 667.513 811.057 666.815 810.807C666.116 810.562 665.533 810.239 665.067 809.835C664.607 809.438 664.241 809.011 663.968 808.557L665.57 807.432C665.752 807.67 665.982 807.943 666.261 808.25C666.539 808.562 666.92 808.832 667.403 809.06C667.891 809.293 668.531 809.409 669.32 809.409C670.377 809.409 671.249 809.153 671.937 808.642C672.624 808.131 672.968 807.33 672.968 806.239V803.58H672.798C672.65 803.818 672.44 804.114 672.167 804.466C671.9 804.812 671.513 805.122 671.008 805.395C670.508 805.662 669.832 805.795 668.979 805.795C667.923 805.795 666.974 805.545 666.133 805.045C665.298 804.545 664.636 803.818 664.147 802.864C663.664 801.909 663.423 800.75 663.423 799.386C663.423 798.045 663.658 796.878 664.13 795.884C664.602 794.884 665.258 794.111 666.099 793.565C666.94 793.014 667.911 792.739 669.013 792.739C669.866 792.739 670.542 792.881 671.042 793.165C671.548 793.443 671.934 793.761 672.201 794.119C672.474 794.472 672.684 794.761 672.832 794.989H673.036V792.909H674.979V806.375C674.979 807.5 674.724 808.415 674.212 809.119C673.707 809.83 673.025 810.349 672.167 810.679C671.315 811.014 670.366 811.182 669.32 811.182ZM669.252 803.989C670.059 803.989 670.741 803.804 671.298 803.435C671.854 803.065 672.278 802.534 672.567 801.841C672.857 801.148 673.002 800.318 673.002 799.352C673.002 798.409 672.86 797.577 672.576 796.855C672.292 796.134 671.871 795.568 671.315 795.159C670.758 794.75 670.07 794.545 669.252 794.545C668.4 794.545 667.69 794.761 667.121 795.193C666.559 795.625 666.136 796.205 665.852 796.932C665.573 797.659 665.434 798.466 665.434 799.352C665.434 800.261 665.576 801.065 665.86 801.764C666.15 802.457 666.576 803.003 667.138 803.401C667.707 803.793 668.411 803.989 669.252 803.989ZM697.138 788.545H699.252V800.102C699.252 801.295 698.971 802.361 698.408 803.298C697.852 804.23 697.065 804.966 696.048 805.506C695.031 806.04 693.837 806.307 692.468 806.307C691.099 806.307 689.906 806.04 688.888 805.506C687.871 804.966 687.082 804.23 686.519 803.298C685.962 802.361 685.684 801.295 685.684 800.102V788.545H687.798V799.932C687.798 800.784 687.985 801.543 688.36 802.207C688.735 802.866 689.269 803.386 689.962 803.767C690.661 804.142 691.496 804.33 692.468 804.33C693.44 804.33 694.275 804.142 694.974 803.767C695.673 803.386 696.207 802.866 696.576 802.207C696.951 801.543 697.138 800.784 697.138 799.932V788.545ZM712.473 795.841L710.666 796.352C710.553 796.051 710.385 795.759 710.163 795.474C709.947 795.185 709.652 794.946 709.277 794.759C708.902 794.571 708.422 794.477 707.837 794.477C707.036 794.477 706.368 794.662 705.834 795.031C705.305 795.395 705.041 795.858 705.041 796.42C705.041 796.92 705.223 797.315 705.587 797.605C705.95 797.895 706.518 798.136 707.291 798.33L709.234 798.807C710.405 799.091 711.277 799.526 711.851 800.111C712.425 800.69 712.712 801.437 712.712 802.352C712.712 803.102 712.496 803.773 712.064 804.364C711.638 804.955 711.041 805.42 710.274 805.761C709.507 806.102 708.615 806.273 707.598 806.273C706.263 806.273 705.158 805.983 704.283 805.403C703.408 804.824 702.854 803.977 702.621 802.864L704.53 802.386C704.712 803.091 705.055 803.619 705.561 803.972C706.072 804.324 706.74 804.5 707.564 804.5C708.501 804.5 709.246 804.301 709.797 803.903C710.354 803.5 710.632 803.017 710.632 802.455C710.632 802 710.473 801.619 710.155 801.312C709.837 801 709.348 800.767 708.689 800.614L706.507 800.102C705.308 799.818 704.428 799.378 703.865 798.781C703.308 798.179 703.03 797.426 703.03 796.523C703.03 795.784 703.237 795.131 703.652 794.562C704.072 793.994 704.643 793.548 705.365 793.224C706.092 792.901 706.916 792.739 707.837 792.739C709.132 792.739 710.149 793.023 710.888 793.591C711.632 794.159 712.161 794.909 712.473 795.841ZM721.228 806.273C719.967 806.273 718.879 805.994 717.964 805.438C717.055 804.875 716.353 804.091 715.859 803.085C715.37 802.074 715.126 800.898 715.126 799.557C715.126 798.216 715.37 797.034 715.859 796.011C716.353 794.983 717.04 794.182 717.921 793.608C718.808 793.028 719.842 792.739 721.023 792.739C721.705 792.739 722.379 792.852 723.043 793.08C723.708 793.307 724.313 793.676 724.859 794.188C725.404 794.693 725.839 795.364 726.163 796.199C726.487 797.034 726.648 798.062 726.648 799.284V800.136H716.558V798.398H724.603C724.603 797.659 724.455 797 724.16 796.42C723.87 795.841 723.455 795.384 722.915 795.048C722.381 794.713 721.751 794.545 721.023 794.545C720.222 794.545 719.529 794.744 718.944 795.142C718.364 795.534 717.918 796.045 717.606 796.676C717.293 797.307 717.137 797.983 717.137 798.705V799.864C717.137 800.852 717.308 801.69 717.648 802.378C717.995 803.06 718.475 803.58 719.089 803.938C719.702 804.29 720.415 804.466 721.228 804.466C721.756 804.466 722.234 804.392 722.66 804.244C723.092 804.091 723.464 803.864 723.776 803.562C724.089 803.256 724.33 802.875 724.501 802.42L726.444 802.966C726.239 803.625 725.896 804.205 725.413 804.705C724.93 805.199 724.333 805.585 723.623 805.864C722.913 806.136 722.114 806.273 721.228 806.273ZM729.708 806V792.909H731.651V794.886H731.788C732.026 794.239 732.458 793.713 733.083 793.31C733.708 792.906 734.413 792.705 735.197 792.705C735.344 792.705 735.529 792.707 735.751 792.713C735.972 792.719 736.14 792.727 736.254 792.739V794.784C736.185 794.767 736.029 794.741 735.785 794.707C735.546 794.668 735.293 794.648 735.026 794.648C734.39 794.648 733.822 794.781 733.322 795.048C732.827 795.31 732.435 795.673 732.146 796.139C731.862 796.599 731.719 797.125 731.719 797.716V806H729.708Z" fill="black"/>
<path d="M622.197 873.545V891H620.151L610.64 877.295H610.469V891H608.356V873.545H610.401L619.947 887.284H620.117V873.545H622.197ZM631.642 891.273C630.381 891.273 629.293 890.994 628.378 890.438C627.469 889.875 626.767 889.091 626.273 888.085C625.784 887.074 625.54 885.898 625.54 884.557C625.54 883.216 625.784 882.034 626.273 881.011C626.767 879.983 627.455 879.182 628.335 878.608C629.222 878.028 630.256 877.739 631.438 877.739C632.119 877.739 632.793 877.852 633.457 878.08C634.122 878.307 634.727 878.676 635.273 879.188C635.818 879.693 636.253 880.364 636.577 881.199C636.901 882.034 637.062 883.062 637.062 884.284V885.136H626.972V883.398H635.017C635.017 882.659 634.869 882 634.574 881.42C634.284 880.841 633.869 880.384 633.33 880.048C632.795 879.713 632.165 879.545 631.438 879.545C630.636 879.545 629.943 879.744 629.358 880.142C628.778 880.534 628.332 881.045 628.02 881.676C627.707 882.307 627.551 882.983 627.551 883.705V884.864C627.551 885.852 627.722 886.69 628.062 887.378C628.409 888.06 628.889 888.58 629.503 888.938C630.116 889.29 630.83 889.466 631.642 889.466C632.17 889.466 632.648 889.392 633.074 889.244C633.506 889.091 633.878 888.864 634.19 888.562C634.503 888.256 634.744 887.875 634.915 887.42L636.858 887.966C636.653 888.625 636.31 889.205 635.827 889.705C635.344 890.199 634.747 890.585 634.037 890.864C633.327 891.136 632.528 891.273 631.642 891.273ZM643.088 891L639.099 877.909H641.213L644.043 887.932H644.179L646.974 877.909H649.122L651.884 887.898H652.02L654.849 877.909H656.963L652.974 891H650.997L648.134 880.943H647.929L645.065 891H643.088ZM678.099 873.545H680.213V885.102C680.213 886.295 679.932 887.361 679.369 888.298C678.813 889.23 678.026 889.966 677.009 890.506C675.991 891.04 674.798 891.307 673.429 891.307C672.06 891.307 670.866 891.04 669.849 890.506C668.832 889.966 668.043 889.23 667.48 888.298C666.923 887.361 666.645 886.295 666.645 885.102V873.545H668.759V884.932C668.759 885.784 668.946 886.543 669.321 887.207C669.696 887.866 670.23 888.386 670.923 888.767C671.622 889.142 672.457 889.33 673.429 889.33C674.401 889.33 675.236 889.142 675.935 888.767C676.634 888.386 677.168 887.866 677.537 887.207C677.912 886.543 678.099 885.784 678.099 884.932V873.545ZM693.434 880.841L691.627 881.352C691.513 881.051 691.346 880.759 691.124 880.474C690.908 880.185 690.613 879.946 690.238 879.759C689.863 879.571 689.383 879.477 688.798 879.477C687.996 879.477 687.329 879.662 686.795 880.031C686.266 880.395 686.002 880.858 686.002 881.42C686.002 881.92 686.184 882.315 686.548 882.605C686.911 882.895 687.479 883.136 688.252 883.33L690.195 883.807C691.366 884.091 692.238 884.526 692.812 885.111C693.386 885.69 693.673 886.437 693.673 887.352C693.673 888.102 693.457 888.773 693.025 889.364C692.599 889.955 692.002 890.42 691.235 890.761C690.468 891.102 689.576 891.273 688.559 891.273C687.224 891.273 686.119 890.983 685.244 890.403C684.369 889.824 683.815 888.977 683.582 887.864L685.491 887.386C685.673 888.091 686.016 888.619 686.522 888.972C687.033 889.324 687.701 889.5 688.525 889.5C689.462 889.5 690.207 889.301 690.758 888.903C691.315 888.5 691.593 888.017 691.593 887.455C691.593 887 691.434 886.619 691.116 886.312C690.798 886 690.309 885.767 689.65 885.614L687.468 885.102C686.269 884.818 685.388 884.378 684.826 883.781C684.269 883.179 683.991 882.426 683.991 881.523C683.991 880.784 684.198 880.131 684.613 879.562C685.033 878.994 685.604 878.548 686.326 878.224C687.053 877.901 687.877 877.739 688.798 877.739C690.093 877.739 691.11 878.023 691.849 878.591C692.593 879.159 693.121 879.909 693.434 880.841ZM702.189 891.273C700.928 891.273 699.839 890.994 698.925 890.438C698.016 889.875 697.314 889.091 696.82 888.085C696.331 887.074 696.087 885.898 696.087 884.557C696.087 883.216 696.331 882.034 696.82 881.011C697.314 879.983 698.001 879.182 698.882 878.608C699.768 878.028 700.803 877.739 701.984 877.739C702.666 877.739 703.339 877.852 704.004 878.08C704.669 878.307 705.274 878.676 705.82 879.188C706.365 879.693 706.8 880.364 707.124 881.199C707.447 882.034 707.609 883.062 707.609 884.284V885.136H697.518V883.398H705.564C705.564 882.659 705.416 882 705.121 881.42C704.831 880.841 704.416 880.384 703.876 880.048C703.342 879.713 702.712 879.545 701.984 879.545C701.183 879.545 700.49 879.744 699.905 880.142C699.325 880.534 698.879 881.045 698.567 881.676C698.254 882.307 698.098 882.983 698.098 883.705V884.864C698.098 885.852 698.268 886.69 698.609 887.378C698.956 888.06 699.436 888.58 700.05 888.938C700.663 889.29 701.376 889.466 702.189 889.466C702.717 889.466 703.195 889.392 703.621 889.244C704.053 889.091 704.425 888.864 704.737 888.562C705.05 888.256 705.291 887.875 705.462 887.42L707.405 887.966C707.2 888.625 706.857 889.205 706.374 889.705C705.891 890.199 705.294 890.585 704.584 890.864C703.874 891.136 703.075 891.273 702.189 891.273ZM710.669 891V877.909H712.612V879.886H712.749C712.987 879.239 713.419 878.713 714.044 878.31C714.669 877.906 715.374 877.705 716.158 877.705C716.305 877.705 716.49 877.707 716.712 877.713C716.933 877.719 717.101 877.727 717.214 877.739V879.784C717.146 879.767 716.99 879.741 716.746 879.707C716.507 879.668 716.254 879.648 715.987 879.648C715.351 879.648 714.783 879.781 714.283 880.048C713.788 880.31 713.396 880.673 713.107 881.139C712.822 881.599 712.68 882.125 712.68 882.716V891H710.669Z" fill="white"/>
<path d="M1098.98 366V338.364H1102.32V350.67H1117.06V338.364H1120.41V366H1117.06V353.639H1102.32V366H1098.98ZM1135.09 366.432C1133.22 366.432 1131.58 365.987 1130.17 365.096C1128.77 364.205 1127.67 362.959 1126.88 361.358C1126.09 359.757 1125.7 357.885 1125.7 355.744C1125.7 353.585 1126.09 351.701 1126.88 350.09C1127.67 348.48 1128.77 347.229 1130.17 346.339C1131.58 345.448 1133.22 345.003 1135.09 345.003C1136.97 345.003 1138.6 345.448 1140.01 346.339C1141.42 347.229 1142.52 348.48 1143.3 350.09C1144.09 351.701 1144.49 353.585 1144.49 355.744C1144.49 357.885 1144.09 359.757 1143.3 361.358C1142.52 362.959 1141.42 364.205 1140.01 365.096C1138.6 365.987 1136.97 366.432 1135.09 366.432ZM1135.09 363.571C1136.52 363.571 1137.69 363.207 1138.6 362.478C1139.52 361.749 1140.2 360.791 1140.64 359.604C1141.08 358.416 1141.3 357.13 1141.3 355.744C1141.3 354.359 1141.08 353.068 1140.64 351.871C1140.2 350.675 1139.52 349.708 1138.6 348.97C1137.69 348.232 1136.52 347.864 1135.09 347.864C1133.67 347.864 1132.5 348.232 1131.59 348.97C1130.67 349.708 1129.99 350.675 1129.55 351.871C1129.11 353.068 1128.89 354.359 1128.89 355.744C1128.89 357.13 1129.11 358.416 1129.55 359.604C1129.99 360.791 1130.67 361.749 1131.59 362.478C1132.5 363.207 1133.67 363.571 1135.09 363.571ZM1153.34 366L1147.02 345.273H1150.37L1154.85 361.142H1155.07L1159.49 345.273H1162.89L1167.27 361.088H1167.48L1171.96 345.273H1175.31L1168.99 366H1165.86L1161.33 350.077H1161L1156.47 366H1153.34ZM1190.21 366V345.273H1193.28V348.511H1193.55C1193.98 347.405 1194.68 346.546 1195.64 345.934C1196.61 345.313 1197.76 345.003 1199.11 345.003C1200.48 345.003 1201.62 345.313 1202.53 345.934C1203.44 346.546 1204.16 347.405 1204.67 348.511H1204.89C1205.42 347.441 1206.21 346.591 1207.28 345.961C1208.34 345.322 1209.61 345.003 1211.09 345.003C1212.95 345.003 1214.46 345.583 1215.64 346.744C1216.82 347.895 1217.41 349.69 1217.41 352.128V366H1214.23V352.128C1214.23 350.598 1213.81 349.505 1212.97 348.849C1212.13 348.192 1211.15 347.864 1210.02 347.864C1208.56 347.864 1207.43 348.304 1206.63 349.186C1205.83 350.059 1205.43 351.165 1205.43 352.506V366H1202.19V351.804C1202.19 350.625 1201.81 349.676 1201.04 348.957C1200.28 348.228 1199.29 347.864 1198.09 347.864C1197.26 347.864 1196.49 348.084 1195.77 348.525C1195.05 348.966 1194.48 349.577 1194.04 350.36C1193.61 351.134 1193.39 352.029 1193.39 353.045V366H1190.21ZM1229.33 366.486C1228.02 366.486 1226.83 366.238 1225.76 365.744C1224.69 365.24 1223.84 364.516 1223.21 363.571C1222.58 362.617 1222.26 361.466 1222.26 360.116C1222.26 358.929 1222.5 357.966 1222.96 357.229C1223.43 356.482 1224.06 355.897 1224.84 355.474C1225.62 355.052 1226.49 354.737 1227.43 354.53C1228.38 354.314 1229.34 354.143 1230.3 354.017C1231.56 353.855 1232.58 353.734 1233.37 353.653C1234.16 353.563 1234.73 353.414 1235.09 353.207C1235.46 353 1235.65 352.641 1235.65 352.128V352.02C1235.65 350.688 1235.28 349.654 1234.55 348.916C1233.84 348.179 1232.74 347.81 1231.28 347.81C1229.76 347.81 1228.56 348.143 1227.7 348.808C1226.84 349.474 1226.23 350.185 1225.88 350.94L1222.86 349.861C1223.4 348.601 1224.11 347.621 1225.01 346.919C1225.92 346.208 1226.91 345.714 1227.98 345.435C1229.06 345.147 1230.12 345.003 1231.17 345.003C1231.83 345.003 1232.6 345.084 1233.46 345.246C1234.33 345.399 1235.18 345.718 1235.99 346.204C1236.8 346.69 1237.48 347.423 1238.02 348.403C1238.56 349.384 1238.83 350.697 1238.83 352.344V366H1235.65V363.193H1235.49C1235.27 363.643 1234.91 364.124 1234.41 364.637C1233.9 365.15 1233.23 365.586 1232.4 365.946C1231.56 366.306 1230.54 366.486 1229.33 366.486ZM1229.82 363.625C1231.08 363.625 1232.14 363.378 1233 362.883C1233.88 362.388 1234.53 361.749 1234.97 360.967C1235.42 360.184 1235.65 359.361 1235.65 358.497V355.582C1235.51 355.744 1235.22 355.893 1234.76 356.028C1234.31 356.154 1233.79 356.266 1233.19 356.365C1232.61 356.455 1232.04 356.536 1231.48 356.608C1230.93 356.671 1230.48 356.725 1230.14 356.77C1229.31 356.878 1228.54 357.053 1227.82 357.296C1227.11 357.53 1226.53 357.885 1226.09 358.362C1225.66 358.83 1225.45 359.469 1225.45 360.278C1225.45 361.385 1225.86 362.222 1226.67 362.788C1227.5 363.346 1228.55 363.625 1229.82 363.625ZM1247.83 353.531V366H1244.65V345.273H1247.72V348.511H1247.99C1248.48 347.459 1249.22 346.613 1250.2 345.974C1251.19 345.327 1252.47 345.003 1254.04 345.003C1255.44 345.003 1256.67 345.291 1257.72 345.866C1258.77 346.433 1259.59 347.297 1260.18 348.457C1260.76 349.609 1261.05 351.066 1261.05 352.83V366H1257.87V353.045C1257.87 351.417 1257.45 350.149 1256.6 349.24C1255.76 348.322 1254.6 347.864 1253.12 347.864C1252.1 347.864 1251.19 348.084 1250.39 348.525C1249.6 348.966 1248.98 349.609 1248.52 350.455C1248.06 351.3 1247.83 352.326 1247.83 353.531ZM1268.18 373.773C1267.64 373.773 1267.16 373.728 1266.74 373.638C1266.32 373.557 1266.02 373.476 1265.86 373.395L1266.67 370.588C1267.45 370.786 1268.13 370.858 1268.72 370.804C1269.32 370.75 1269.84 370.485 1270.3 370.008C1270.77 369.54 1271.2 368.78 1271.58 367.727L1272.18 366.108L1264.51 345.273H1267.97L1273.69 361.79H1273.9L1279.63 345.273H1283.08L1274.28 369.023C1273.89 370.093 1273.4 370.979 1272.81 371.681C1272.23 372.392 1271.55 372.918 1270.77 373.26C1270.01 373.602 1269.15 373.773 1268.18 373.773ZM1122.17 419.773V391.273H1125.24V394.565H1125.62C1125.85 394.205 1126.18 393.747 1126.59 393.189C1127.01 392.622 1127.62 392.118 1128.4 391.678C1129.19 391.228 1130.26 391.003 1131.61 391.003C1133.36 391.003 1134.9 391.439 1136.23 392.312C1137.56 393.184 1138.6 394.421 1139.34 396.023C1140.09 397.624 1140.46 399.513 1140.46 401.69C1140.46 403.885 1140.09 405.788 1139.34 407.398C1138.6 409 1137.56 410.241 1136.24 411.123C1134.92 411.996 1133.39 412.432 1131.67 412.432C1130.33 412.432 1129.27 412.211 1128.47 411.771C1127.67 411.321 1127.05 410.812 1126.62 410.246C1126.19 409.67 1125.85 409.193 1125.62 408.815H1125.35V419.773H1122.17ZM1125.3 401.636C1125.3 403.202 1125.53 404.583 1125.98 405.779C1126.44 406.967 1127.11 407.898 1128 408.572C1128.88 409.238 1129.96 409.571 1131.23 409.571C1132.57 409.571 1133.68 409.22 1134.57 408.518C1135.47 407.808 1136.14 406.854 1136.59 405.658C1137.05 404.452 1137.28 403.112 1137.28 401.636C1137.28 400.179 1137.05 398.866 1136.6 397.696C1136.16 396.518 1135.49 395.586 1134.59 394.903C1133.7 394.21 1132.58 393.864 1131.23 393.864C1129.94 393.864 1128.85 394.192 1127.97 394.849C1127.09 395.496 1126.42 396.405 1125.97 397.575C1125.52 398.735 1125.3 400.089 1125.3 401.636ZM1154.01 412.432C1152.02 412.432 1150.29 411.991 1148.84 411.109C1147.4 410.219 1146.29 408.977 1145.51 407.385C1144.74 405.784 1144.35 403.921 1144.35 401.798C1144.35 399.675 1144.74 397.804 1145.51 396.185C1146.29 394.556 1147.38 393.288 1148.78 392.379C1150.18 391.462 1151.82 391.003 1153.69 391.003C1154.77 391.003 1155.83 391.183 1156.89 391.543C1157.94 391.902 1158.9 392.487 1159.76 393.297C1160.62 394.098 1161.31 395.159 1161.83 396.482C1162.34 397.804 1162.59 399.432 1162.59 401.366V402.716H1146.62V399.963H1159.36C1159.36 398.794 1159.12 397.75 1158.65 396.832C1158.2 395.915 1157.54 395.191 1156.68 394.66C1155.84 394.129 1154.84 393.864 1153.69 393.864C1152.42 393.864 1151.32 394.179 1150.4 394.808C1149.48 395.429 1148.77 396.239 1148.28 397.237C1147.78 398.236 1147.54 399.306 1147.54 400.449V402.284C1147.54 403.849 1147.8 405.176 1148.34 406.265C1148.89 407.344 1149.65 408.168 1150.63 408.734C1151.6 409.292 1152.73 409.571 1154.01 409.571C1154.85 409.571 1155.6 409.454 1156.28 409.22C1156.96 408.977 1157.55 408.617 1158.05 408.141C1158.54 407.655 1158.92 407.052 1159.19 406.332L1162.27 407.196C1161.95 408.24 1161.4 409.157 1160.64 409.949C1159.87 410.732 1158.93 411.343 1157.8 411.784C1156.68 412.216 1155.42 412.432 1154.01 412.432ZM1175.86 412.432C1173.99 412.432 1172.35 411.987 1170.93 411.096C1169.53 410.205 1168.43 408.959 1167.64 407.358C1166.86 405.757 1166.47 403.885 1166.47 401.744C1166.47 399.585 1166.86 397.701 1167.64 396.09C1168.43 394.48 1169.53 393.229 1170.93 392.339C1172.35 391.448 1173.99 391.003 1175.86 391.003C1177.73 391.003 1179.37 391.448 1180.77 392.339C1182.18 393.229 1183.28 394.48 1184.06 396.09C1184.86 397.701 1185.25 399.585 1185.25 401.744C1185.25 403.885 1184.86 405.757 1184.06 407.358C1183.28 408.959 1182.18 410.205 1180.77 411.096C1179.37 411.987 1177.73 412.432 1175.86 412.432ZM1175.86 409.571C1177.28 409.571 1178.45 409.207 1179.37 408.478C1180.29 407.749 1180.96 406.791 1181.41 405.604C1181.85 404.416 1182.07 403.13 1182.07 401.744C1182.07 400.359 1181.85 399.068 1181.41 397.871C1180.96 396.675 1180.29 395.708 1179.37 394.97C1178.45 394.232 1177.28 393.864 1175.86 393.864C1174.44 393.864 1173.27 394.232 1172.35 394.97C1171.43 395.708 1170.75 396.675 1170.31 397.871C1169.87 399.068 1169.65 400.359 1169.65 401.744C1169.65 403.13 1169.87 404.416 1170.31 405.604C1170.75 406.791 1171.43 407.749 1172.35 408.478C1173.27 409.207 1174.44 409.571 1175.86 409.571ZM1190.11 419.773V391.273H1193.19V394.565H1193.57C1193.8 394.205 1194.13 393.747 1194.54 393.189C1194.96 392.622 1195.56 392.118 1196.35 391.678C1197.14 391.228 1198.21 391.003 1199.56 391.003C1201.3 391.003 1202.84 391.439 1204.17 392.312C1205.51 393.184 1206.54 394.421 1207.29 396.023C1208.04 397.624 1208.41 399.513 1208.41 401.69C1208.41 403.885 1208.04 405.788 1207.29 407.398C1206.54 409 1205.51 410.241 1204.19 411.123C1202.87 411.996 1201.34 412.432 1199.61 412.432C1198.28 412.432 1197.22 412.211 1196.41 411.771C1195.61 411.321 1195 410.812 1194.57 410.246C1194.13 409.67 1193.8 409.193 1193.57 408.815H1193.3V419.773H1190.11ZM1193.24 401.636C1193.24 403.202 1193.47 404.583 1193.93 405.779C1194.39 406.967 1195.06 407.898 1195.94 408.572C1196.82 409.238 1197.9 409.571 1199.18 409.571C1200.51 409.571 1201.62 409.22 1202.51 408.518C1203.41 407.808 1204.09 406.854 1204.54 405.658C1205 404.452 1205.23 403.112 1205.23 401.636C1205.23 400.179 1205 398.866 1204.55 397.696C1204.11 396.518 1203.44 395.586 1202.54 394.903C1201.65 394.21 1200.53 393.864 1199.18 393.864C1197.89 393.864 1196.8 394.192 1195.92 394.849C1195.03 395.496 1194.37 396.405 1193.92 397.575C1193.47 398.735 1193.24 400.089 1193.24 401.636ZM1216.45 384.364V412H1213.27V384.364H1216.45ZM1230.98 412.432C1228.98 412.432 1227.26 411.991 1225.81 411.109C1224.37 410.219 1223.26 408.977 1222.48 407.385C1221.7 405.784 1221.32 403.921 1221.32 401.798C1221.32 399.675 1221.7 397.804 1222.48 396.185C1223.26 394.556 1224.35 393.288 1225.74 392.379C1227.14 391.462 1228.78 391.003 1230.65 391.003C1231.73 391.003 1232.8 391.183 1233.85 391.543C1234.9 391.902 1235.86 392.487 1236.73 393.297C1237.59 394.098 1238.28 395.159 1238.79 396.482C1239.3 397.804 1239.56 399.432 1239.56 401.366V402.716H1223.58V399.963H1236.32C1236.32 398.794 1236.09 397.75 1235.62 396.832C1235.16 395.915 1234.5 395.191 1233.65 394.66C1232.8 394.129 1231.8 393.864 1230.65 393.864C1229.38 393.864 1228.29 394.179 1227.36 394.808C1226.44 395.429 1225.74 396.239 1225.24 397.237C1224.75 398.236 1224.5 399.306 1224.5 400.449V402.284C1224.5 403.849 1224.77 405.176 1225.31 406.265C1225.86 407.344 1226.62 408.168 1227.59 408.734C1228.56 409.292 1229.69 409.571 1230.98 409.571C1231.81 409.571 1232.57 409.454 1233.24 409.22C1233.93 408.977 1234.52 408.617 1235.01 408.141C1235.51 407.655 1235.89 407.052 1236.16 406.332L1239.24 407.196C1238.91 408.24 1238.37 409.157 1237.6 409.949C1236.84 410.732 1235.89 411.343 1234.77 411.784C1233.64 412.216 1232.38 412.432 1230.98 412.432ZM1248.56 404.227V404.065C1248.58 402.347 1248.76 400.98 1249.1 399.963C1249.44 398.946 1249.93 398.123 1250.56 397.494C1251.19 396.864 1251.94 396.284 1252.82 395.753C1253.36 395.429 1253.83 395.047 1254.25 394.606C1254.68 394.156 1255.01 393.639 1255.25 393.054C1255.51 392.469 1255.63 391.821 1255.63 391.111C1255.63 390.229 1255.42 389.464 1255.01 388.817C1254.6 388.169 1254.04 387.67 1253.35 387.319C1252.66 386.968 1251.89 386.793 1251.04 386.793C1250.31 386.793 1249.59 386.946 1248.91 387.251C1248.23 387.557 1247.66 388.039 1247.2 388.695C1246.74 389.352 1246.47 390.211 1246.4 391.273H1243C1243.07 389.743 1243.47 388.434 1244.19 387.346C1244.92 386.257 1245.87 385.425 1247.06 384.849C1248.26 384.274 1249.59 383.986 1251.04 383.986C1252.63 383.986 1254 384.301 1255.17 384.93C1256.35 385.56 1257.26 386.424 1257.9 387.521C1258.55 388.619 1258.87 389.869 1258.87 391.273C1258.87 392.262 1258.72 393.157 1258.41 393.958C1258.11 394.759 1257.68 395.474 1257.12 396.104C1256.56 396.733 1255.88 397.291 1255.09 397.777C1254.3 398.272 1253.67 398.794 1253.19 399.342C1252.71 399.882 1252.37 400.525 1252.15 401.272C1251.93 402.019 1251.82 402.95 1251.8 404.065V404.227H1248.56ZM1250.29 412.216C1249.62 412.216 1249.05 411.978 1248.57 411.501C1248.1 411.024 1247.86 410.453 1247.86 409.787C1247.86 409.121 1248.1 408.55 1248.57 408.073C1249.05 407.596 1249.62 407.358 1250.29 407.358C1250.95 407.358 1251.52 407.596 1252 408.073C1252.48 408.55 1252.72 409.121 1252.72 409.787C1252.72 410.228 1252.6 410.633 1252.38 411.001C1252.16 411.37 1251.87 411.667 1251.5 411.892C1251.14 412.108 1250.74 412.216 1250.29 412.216Z" fill="black"/>
<rect x="1085.5" y="541.5" width="208" height="69" fill="white" stroke="#BEBEBE"/>
<circle cx="1178" cy="1014" r="6" fill="#575757"/>
<circle cx="1210" cy="1014" r="6" fill="#D9D9D9"/>
<path d="M1187.47 583.199C1186.63 583.199 1185.88 583.033 1185.22 582.702C1184.55 582.37 1184.01 581.916 1183.61 581.338C1183.21 580.76 1182.99 580.102 1182.95 579.364H1184.65C1184.72 580.022 1185.02 580.566 1185.55 580.997C1186.08 581.423 1186.72 581.636 1187.47 581.636C1188.06 581.636 1188.59 581.497 1189.06 581.217C1189.53 580.938 1189.89 580.554 1190.16 580.067C1190.43 579.574 1190.56 579.018 1190.56 578.398C1190.56 577.763 1190.42 577.197 1190.14 576.7C1189.87 576.198 1189.49 575.803 1189.01 575.514C1188.53 575.225 1187.97 575.079 1187.35 575.074C1186.91 575.069 1186.45 575.138 1185.98 575.28C1185.51 575.417 1185.13 575.595 1184.83 575.812L1183.18 575.614L1184.06 568.455H1191.61V570.017H1185.54L1185.02 574.307H1185.11C1185.41 574.07 1185.78 573.874 1186.23 573.717C1186.68 573.561 1187.15 573.483 1187.64 573.483C1188.53 573.483 1189.32 573.696 1190.02 574.122C1190.72 574.544 1191.27 575.121 1191.66 575.855C1192.07 576.589 1192.27 577.427 1192.27 578.369C1192.27 579.297 1192.06 580.126 1191.64 580.855C1191.23 581.58 1190.66 582.152 1189.94 582.574C1189.21 582.991 1188.39 583.199 1187.47 583.199Z" fill="black"/>
<path d="M1599.12 366V338.364H1602.46V350.67H1617.2V338.364H1620.55V366H1617.2V353.639H1602.46V366H1599.12ZM1635.23 366.432C1633.36 366.432 1631.72 365.987 1630.31 365.096C1628.9 364.205 1627.81 362.959 1627.02 361.358C1626.23 359.757 1625.84 357.885 1625.84 355.744C1625.84 353.585 1626.23 351.701 1627.02 350.09C1627.81 348.48 1628.9 347.229 1630.31 346.339C1631.72 345.448 1633.36 345.003 1635.23 345.003C1637.1 345.003 1638.74 345.448 1640.15 346.339C1641.56 347.229 1642.66 348.48 1643.44 350.09C1644.23 351.701 1644.63 353.585 1644.63 355.744C1644.63 357.885 1644.23 359.757 1643.44 361.358C1642.66 362.959 1641.56 364.205 1640.15 365.096C1638.74 365.987 1637.1 366.432 1635.23 366.432ZM1635.23 363.571C1636.66 363.571 1637.82 363.207 1638.74 362.478C1639.66 361.749 1640.34 360.791 1640.78 359.604C1641.22 358.416 1641.44 357.13 1641.44 355.744C1641.44 354.359 1641.22 353.068 1640.78 351.871C1640.34 350.675 1639.66 349.708 1638.74 348.97C1637.82 348.232 1636.66 347.864 1635.23 347.864C1633.81 347.864 1632.64 348.232 1631.73 348.97C1630.81 349.708 1630.13 350.675 1629.69 351.871C1629.25 353.068 1629.03 354.359 1629.03 355.744C1629.03 357.13 1629.25 358.416 1629.69 359.604C1630.13 360.791 1630.81 361.749 1631.73 362.478C1632.64 363.207 1633.81 363.571 1635.23 363.571ZM1653.48 366L1647.16 345.273H1650.51L1654.99 361.142H1655.21L1659.63 345.273H1663.03L1667.4 361.088H1667.62L1672.1 345.273H1675.45L1669.13 366H1666L1661.47 350.077H1661.14L1656.61 366H1653.48ZM1693.53 338.364V366H1690.34V338.364H1693.53ZM1707.78 366.432C1705.91 366.432 1704.27 365.987 1702.86 365.096C1701.45 364.205 1700.36 362.959 1699.56 361.358C1698.78 359.757 1698.39 357.885 1698.39 355.744C1698.39 353.585 1698.78 351.701 1699.56 350.09C1700.36 348.48 1701.45 347.229 1702.86 346.339C1704.27 345.448 1705.91 345.003 1707.78 345.003C1709.65 345.003 1711.29 345.448 1712.69 346.339C1714.11 347.229 1715.2 348.48 1715.99 350.09C1716.78 351.701 1717.17 353.585 1717.17 355.744C1717.17 357.885 1716.78 359.757 1715.99 361.358C1715.2 362.959 1714.11 364.205 1712.69 365.096C1711.29 365.987 1709.65 366.432 1707.78 366.432ZM1707.78 363.571C1709.2 363.571 1710.37 363.207 1711.29 362.478C1712.21 361.749 1712.89 360.791 1713.33 359.604C1713.77 358.416 1713.99 357.13 1713.99 355.744C1713.99 354.359 1713.77 353.068 1713.33 351.871C1712.89 350.675 1712.21 349.708 1711.29 348.97C1710.37 348.232 1709.2 347.864 1707.78 347.864C1706.36 347.864 1705.19 348.232 1704.27 348.97C1703.36 349.708 1702.68 350.675 1702.24 351.871C1701.8 353.068 1701.58 354.359 1701.58 355.744C1701.58 357.13 1701.8 358.416 1702.24 359.604C1702.68 360.791 1703.36 361.749 1704.27 362.478C1705.19 363.207 1706.36 363.571 1707.78 363.571ZM1725.22 353.531V366H1722.04V345.273H1725.11V348.511H1725.38C1725.87 347.459 1726.61 346.613 1727.6 345.974C1728.59 345.327 1729.86 345.003 1731.43 345.003C1732.83 345.003 1734.06 345.291 1735.11 345.866C1736.16 346.433 1736.98 347.297 1737.57 348.457C1738.15 349.609 1738.44 351.066 1738.44 352.83V366H1735.26V353.045C1735.26 351.417 1734.84 350.149 1733.99 349.24C1733.15 348.322 1731.99 347.864 1730.51 347.864C1729.49 347.864 1728.59 348.084 1727.78 348.525C1726.99 348.966 1726.37 349.609 1725.91 350.455C1725.45 351.3 1725.22 352.326 1725.22 353.531ZM1752.63 374.205C1751.09 374.205 1749.77 374.007 1748.66 373.611C1747.56 373.224 1746.63 372.711 1745.9 372.072C1745.17 371.443 1744.59 370.768 1744.16 370.048L1746.69 368.267C1746.98 368.645 1747.35 369.077 1747.79 369.562C1748.23 370.057 1748.83 370.485 1749.59 370.844C1750.37 371.213 1751.38 371.398 1752.63 371.398C1754.3 371.398 1755.69 370.993 1756.77 370.183C1757.86 369.374 1758.41 368.105 1758.41 366.378V362.168H1758.14C1757.9 362.545 1757.57 363.013 1757.14 363.571C1756.72 364.12 1756.1 364.61 1755.3 365.042C1754.51 365.465 1753.44 365.676 1752.09 365.676C1750.42 365.676 1748.92 365.28 1747.58 364.489C1746.26 363.697 1745.21 362.545 1744.44 361.034C1743.68 359.523 1743.29 357.687 1743.29 355.528C1743.29 353.405 1743.67 351.557 1744.41 349.982C1745.16 348.399 1746.2 347.175 1747.53 346.312C1748.86 345.439 1750.4 345.003 1752.15 345.003C1753.49 345.003 1754.57 345.228 1755.36 345.678C1756.16 346.118 1756.77 346.622 1757.19 347.189C1757.62 347.747 1757.96 348.205 1758.19 348.565H1758.51V345.273H1761.59V366.594C1761.59 368.375 1761.19 369.823 1760.38 370.939C1759.58 372.063 1758.5 372.887 1757.14 373.408C1755.79 373.939 1754.29 374.205 1752.63 374.205ZM1752.52 362.815C1753.8 362.815 1754.88 362.523 1755.76 361.938C1756.64 361.353 1757.31 360.512 1757.77 359.415C1758.23 358.317 1758.46 357.004 1758.46 355.474C1758.46 353.981 1758.24 352.663 1757.79 351.521C1757.34 350.378 1756.67 349.483 1755.79 348.835C1754.91 348.187 1753.82 347.864 1752.52 347.864C1751.17 347.864 1750.05 348.205 1749.15 348.889C1748.26 349.573 1747.59 350.491 1747.14 351.642C1746.7 352.794 1746.48 354.071 1746.48 355.474C1746.48 356.914 1746.7 358.187 1747.15 359.293C1747.61 360.391 1748.29 361.254 1749.18 361.884C1750.08 362.505 1751.19 362.815 1752.52 362.815ZM1784.21 366.486C1782.89 366.486 1781.7 366.238 1780.63 365.744C1779.56 365.24 1778.71 364.516 1778.08 363.571C1777.45 362.617 1777.14 361.466 1777.14 360.116C1777.14 358.929 1777.37 357.966 1777.84 357.229C1778.31 356.482 1778.93 355.897 1779.71 355.474C1780.5 355.052 1781.36 354.737 1782.3 354.53C1783.26 354.314 1784.22 354.143 1785.18 354.017C1786.44 353.855 1787.46 353.734 1788.24 353.653C1789.03 353.563 1789.61 353.414 1789.97 353.207C1790.34 353 1790.52 352.641 1790.52 352.128V352.02C1790.52 350.688 1790.16 349.654 1789.43 348.916C1788.71 348.179 1787.62 347.81 1786.15 347.81C1784.63 347.81 1783.44 348.143 1782.57 348.808C1781.71 349.474 1781.1 350.185 1780.75 350.94L1777.73 349.861C1778.27 348.601 1778.99 347.621 1779.89 346.919C1780.8 346.208 1781.79 345.714 1782.86 345.435C1783.94 345.147 1785 345.003 1786.04 345.003C1786.71 345.003 1787.47 345.084 1788.34 345.246C1789.21 345.399 1790.05 345.718 1790.86 346.204C1791.68 346.69 1792.36 347.423 1792.9 348.403C1793.44 349.384 1793.71 350.697 1793.71 352.344V366H1790.52V363.193H1790.36C1790.15 363.643 1789.79 364.124 1789.28 364.637C1788.78 365.15 1788.11 365.586 1787.27 365.946C1786.43 366.306 1785.41 366.486 1784.21 366.486ZM1784.69 363.625C1785.95 363.625 1787.01 363.378 1787.88 362.883C1788.75 362.388 1789.41 361.749 1789.85 360.967C1790.3 360.184 1790.52 359.361 1790.52 358.497V355.582C1790.39 355.744 1790.09 355.893 1789.63 356.028C1789.18 356.154 1788.66 356.266 1788.07 356.365C1787.48 356.455 1786.91 356.536 1786.35 356.608C1785.8 356.671 1785.36 356.725 1785.02 356.77C1784.19 356.878 1783.42 357.053 1782.7 357.296C1781.99 357.53 1781.41 357.885 1780.97 358.362C1780.54 358.83 1780.32 359.469 1780.32 360.278C1780.32 361.385 1780.73 362.222 1781.55 362.788C1782.38 363.346 1783.42 363.625 1784.69 363.625ZM1799.52 366V345.273H1802.6V348.403H1802.81C1803.19 347.378 1803.87 346.546 1804.86 345.907C1805.85 345.268 1806.97 344.949 1808.21 344.949C1808.44 344.949 1808.74 344.953 1809.09 344.962C1809.44 344.971 1809.7 344.985 1809.88 345.003V348.241C1809.78 348.214 1809.53 348.174 1809.14 348.12C1808.76 348.057 1808.36 348.026 1807.94 348.026C1806.93 348.026 1806.03 348.237 1805.24 348.66C1804.46 349.074 1803.84 349.649 1803.38 350.387C1802.93 351.116 1802.7 351.948 1802.7 352.884V366H1799.52ZM1821.72 366.432C1819.72 366.432 1818 365.991 1816.55 365.109C1815.11 364.219 1814 362.977 1813.22 361.385C1812.44 359.784 1812.06 357.921 1812.06 355.798C1812.06 353.675 1812.44 351.804 1813.22 350.185C1814 348.556 1815.09 347.288 1816.48 346.379C1817.89 345.462 1819.52 345.003 1821.39 345.003C1822.47 345.003 1823.54 345.183 1824.59 345.543C1825.65 345.902 1826.6 346.487 1827.47 347.297C1828.33 348.098 1829.02 349.159 1829.53 350.482C1830.04 351.804 1830.3 353.432 1830.3 355.366V356.716H1814.32V353.963H1827.06C1827.06 352.794 1826.83 351.75 1826.36 350.832C1825.9 349.915 1825.24 349.191 1824.39 348.66C1823.54 348.129 1822.55 347.864 1821.39 347.864C1820.13 347.864 1819.03 348.179 1818.1 348.808C1817.18 349.429 1816.48 350.239 1815.98 351.237C1815.49 352.236 1815.24 353.306 1815.24 354.449V356.284C1815.24 357.849 1815.51 359.176 1816.05 360.265C1816.6 361.344 1817.36 362.168 1818.33 362.734C1819.3 363.292 1820.43 363.571 1821.72 363.571C1822.56 363.571 1823.31 363.454 1823.99 363.22C1824.67 362.977 1825.26 362.617 1825.75 362.141C1826.25 361.655 1826.63 361.052 1826.9 360.332L1829.98 361.196C1829.65 362.24 1829.11 363.157 1828.34 363.949C1827.58 364.732 1826.63 365.343 1825.51 365.784C1824.39 366.216 1823.12 366.432 1821.72 366.432ZM1601.4 419.773C1600.86 419.773 1600.38 419.728 1599.96 419.638C1599.54 419.557 1599.24 419.476 1599.08 419.395L1599.89 416.588C1600.67 416.786 1601.35 416.858 1601.94 416.804C1602.54 416.75 1603.06 416.485 1603.52 416.008C1603.99 415.54 1604.42 414.78 1604.8 413.727L1605.4 412.108L1597.73 391.273H1601.19L1606.91 407.79H1607.12L1612.85 391.273H1616.3L1607.5 415.023C1607.11 416.093 1606.62 416.979 1606.03 417.681C1605.45 418.392 1604.77 418.918 1603.99 419.26C1603.23 419.602 1602.37 419.773 1601.4 419.773ZM1628.18 412.432C1626.31 412.432 1624.67 411.987 1623.26 411.096C1621.85 410.205 1620.76 408.959 1619.96 407.358C1619.18 405.757 1618.79 403.885 1618.79 401.744C1618.79 399.585 1619.18 397.701 1619.96 396.09C1620.76 394.48 1621.85 393.229 1623.26 392.339C1624.67 391.448 1626.31 391.003 1628.18 391.003C1630.05 391.003 1631.69 391.448 1633.09 392.339C1634.51 393.229 1635.6 394.48 1636.39 396.09C1637.18 397.701 1637.57 399.585 1637.57 401.744C1637.57 403.885 1637.18 405.757 1636.39 407.358C1635.6 408.959 1634.51 410.205 1633.09 411.096C1631.69 411.987 1630.05 412.432 1628.18 412.432ZM1628.18 409.571C1629.6 409.571 1630.77 409.207 1631.69 408.478C1632.61 407.749 1633.29 406.791 1633.73 405.604C1634.17 404.416 1634.39 403.13 1634.39 401.744C1634.39 400.359 1634.17 399.068 1633.73 397.871C1633.29 396.675 1632.61 395.708 1631.69 394.97C1630.77 394.232 1629.6 393.864 1628.18 393.864C1626.76 393.864 1625.59 394.232 1624.67 394.97C1623.76 395.708 1623.08 396.675 1622.64 397.871C1622.2 399.068 1621.98 400.359 1621.98 401.744C1621.98 403.13 1622.2 404.416 1622.64 405.604C1623.08 406.791 1623.76 407.749 1624.67 408.478C1625.59 409.207 1626.76 409.571 1628.18 409.571ZM1655.5 403.526V391.273H1658.68V412H1655.5V408.491H1655.28C1654.8 409.544 1654.04 410.439 1653.02 411.177C1651.99 411.906 1650.69 412.27 1649.13 412.27C1647.83 412.27 1646.68 411.987 1645.67 411.42C1644.67 410.844 1643.88 409.98 1643.3 408.829C1642.72 407.668 1642.44 406.206 1642.44 404.443V391.273H1645.62V404.227C1645.62 405.739 1646.04 406.944 1646.89 407.844C1647.74 408.743 1648.83 409.193 1650.16 409.193C1650.95 409.193 1651.75 408.991 1652.57 408.586C1653.4 408.181 1654.09 407.56 1654.65 406.724C1655.22 405.887 1655.5 404.821 1655.5 403.526ZM1679.9 412L1673.58 391.273H1676.93L1681.41 407.142H1681.63L1686.05 391.273H1689.45L1693.83 407.088H1694.04L1698.52 391.273H1701.87L1695.55 412H1692.42L1687.89 396.077H1687.56L1683.03 412H1679.9ZM1706.08 412V391.273H1709.26V412H1706.08ZM1707.7 387.818C1707.08 387.818 1706.54 387.607 1706.09 387.184C1705.65 386.761 1705.43 386.253 1705.43 385.659C1705.43 385.065 1705.65 384.557 1706.09 384.134C1706.54 383.711 1707.08 383.5 1707.7 383.5C1708.32 383.5 1708.85 383.711 1709.29 384.134C1709.74 384.557 1709.97 385.065 1709.97 385.659C1709.97 386.253 1709.74 386.761 1709.29 387.184C1708.85 387.607 1708.32 387.818 1707.7 387.818ZM1718.28 384.364V412H1715.1V384.364H1718.28ZM1727.3 384.364V412H1724.11V384.364H1727.3ZM1733.13 412V391.273H1736.32V412H1733.13ZM1734.75 387.818C1734.13 387.818 1733.59 387.607 1733.15 387.184C1732.7 386.761 1732.48 386.253 1732.48 385.659C1732.48 385.065 1732.7 384.557 1733.15 384.134C1733.59 383.711 1734.13 383.5 1734.75 383.5C1735.37 383.5 1735.9 383.711 1736.34 384.134C1736.79 384.557 1737.02 385.065 1737.02 385.659C1737.02 386.253 1736.79 386.761 1736.34 387.184C1735.9 387.607 1735.37 387.818 1734.75 387.818ZM1745.33 399.531V412H1742.15V391.273H1745.23V394.511H1745.5C1745.98 393.459 1746.72 392.613 1747.71 391.974C1748.7 391.327 1749.98 391.003 1751.54 391.003C1752.94 391.003 1754.17 391.291 1755.23 391.866C1756.28 392.433 1757.1 393.297 1757.68 394.457C1758.27 395.609 1758.56 397.066 1758.56 398.83V412H1755.37V399.045C1755.37 397.417 1754.95 396.149 1754.11 395.24C1753.26 394.322 1752.1 393.864 1750.62 393.864C1749.61 393.864 1748.7 394.084 1747.9 394.525C1747.11 394.966 1746.48 395.609 1746.02 396.455C1745.56 397.3 1745.33 398.326 1745.33 399.531ZM1772.74 420.205C1771.21 420.205 1769.88 420.007 1768.78 419.611C1767.67 419.224 1766.75 418.711 1766.01 418.072C1765.28 417.443 1764.7 416.768 1764.27 416.048L1766.81 414.267C1767.09 414.645 1767.46 415.077 1767.9 415.562C1768.34 416.057 1768.94 416.485 1769.71 416.844C1770.48 417.213 1771.49 417.398 1772.74 417.398C1774.42 417.398 1775.8 416.993 1776.89 416.183C1777.98 415.374 1778.52 414.105 1778.52 412.378V408.168H1778.25C1778.02 408.545 1777.68 409.013 1777.25 409.571C1776.83 410.12 1776.22 410.61 1775.42 411.042C1774.62 411.465 1773.55 411.676 1772.2 411.676C1770.53 411.676 1769.03 411.28 1767.7 410.489C1766.37 409.697 1765.33 408.545 1764.55 407.034C1763.79 405.523 1763.41 403.687 1763.41 401.528C1763.41 399.405 1763.78 397.557 1764.53 395.982C1765.27 394.399 1766.31 393.175 1767.64 392.312C1768.97 391.439 1770.51 391.003 1772.26 391.003C1773.61 391.003 1774.68 391.228 1775.47 391.678C1776.27 392.118 1776.88 392.622 1777.31 393.189C1777.74 393.747 1778.07 394.205 1778.3 394.565H1778.63V391.273H1781.7V412.594C1781.7 414.375 1781.3 415.823 1780.49 416.939C1779.69 418.063 1778.61 418.887 1777.25 419.408C1775.9 419.939 1774.4 420.205 1772.74 420.205ZM1772.64 408.815C1773.91 408.815 1774.99 408.523 1775.87 407.938C1776.76 407.353 1777.43 406.512 1777.89 405.415C1778.34 404.317 1778.57 403.004 1778.57 401.474C1778.57 399.981 1778.35 398.663 1777.9 397.521C1777.45 396.378 1776.78 395.483 1775.9 394.835C1775.02 394.187 1773.93 393.864 1772.64 393.864C1771.29 393.864 1770.16 394.205 1769.26 394.889C1768.37 395.573 1767.7 396.491 1767.25 397.642C1766.81 398.794 1766.59 400.071 1766.59 401.474C1766.59 402.914 1766.82 404.187 1767.27 405.293C1767.72 406.391 1768.4 407.254 1769.29 407.884C1770.19 408.505 1771.3 408.815 1772.64 408.815ZM1807.24 391.273V393.972H1796.49V391.273H1807.24ZM1799.62 386.307H1802.81V406.062C1802.81 406.962 1802.94 407.637 1803.2 408.087C1803.47 408.527 1803.81 408.824 1804.23 408.977C1804.65 409.121 1805.09 409.193 1805.56 409.193C1805.91 409.193 1806.2 409.175 1806.43 409.139C1806.65 409.094 1806.83 409.058 1806.97 409.031L1807.61 411.892C1807.4 411.973 1807.1 412.054 1806.71 412.135C1806.32 412.225 1805.83 412.27 1805.24 412.27C1804.34 412.27 1803.46 412.076 1802.59 411.69C1801.74 411.303 1801.03 410.714 1800.46 409.922C1799.9 409.13 1799.62 408.132 1799.62 406.926V386.307ZM1820.22 412.432C1818.35 412.432 1816.71 411.987 1815.3 411.096C1813.9 410.205 1812.8 408.959 1812.01 407.358C1811.22 405.757 1810.83 403.885 1810.83 401.744C1810.83 399.585 1811.22 397.701 1812.01 396.09C1812.8 394.48 1813.9 393.229 1815.3 392.339C1816.71 391.448 1818.35 391.003 1820.22 391.003C1822.1 391.003 1823.73 391.448 1825.14 392.339C1826.55 393.229 1827.65 394.48 1828.43 396.09C1829.22 397.701 1829.62 399.585 1829.62 401.744C1829.62 403.885 1829.22 405.757 1828.43 407.358C1827.65 408.959 1826.55 410.205 1825.14 411.096C1823.73 411.987 1822.1 412.432 1820.22 412.432ZM1820.22 409.571C1821.65 409.571 1822.81 409.207 1823.73 408.478C1824.65 407.749 1825.33 406.791 1825.77 405.604C1826.21 404.416 1826.43 403.13 1826.43 401.744C1826.43 400.359 1826.21 399.068 1825.77 397.871C1825.33 396.675 1824.65 395.708 1823.73 394.97C1822.81 394.232 1821.65 393.864 1820.22 393.864C1818.8 393.864 1817.63 394.232 1816.72 394.97C1815.8 395.708 1815.12 396.675 1814.68 397.871C1814.24 399.068 1814.02 400.359 1814.02 401.744C1814.02 403.13 1814.24 404.416 1814.68 405.604C1815.12 406.791 1815.8 407.749 1816.72 408.478C1817.63 409.207 1818.8 409.571 1820.22 409.571ZM1674.43 458L1668.11 437.273H1671.46L1675.94 453.142H1676.15L1680.58 437.273H1683.98L1688.35 453.088H1688.57L1693.05 437.273H1696.39L1690.08 458H1686.95L1682.41 442.077H1682.09L1677.56 458H1674.43ZM1706.7 458.486C1705.39 458.486 1704.2 458.238 1703.13 457.744C1702.06 457.24 1701.21 456.516 1700.58 455.571C1699.95 454.617 1699.63 453.466 1699.63 452.116C1699.63 450.929 1699.87 449.966 1700.34 449.229C1700.8 448.482 1701.43 447.897 1702.21 447.474C1702.99 447.052 1703.86 446.737 1704.8 446.53C1705.76 446.314 1706.71 446.143 1707.68 446.017C1708.94 445.855 1709.96 445.734 1710.74 445.653C1711.53 445.563 1712.11 445.414 1712.47 445.207C1712.84 445 1713.02 444.641 1713.02 444.128V444.02C1713.02 442.688 1712.66 441.654 1711.93 440.916C1711.21 440.179 1710.11 439.81 1708.65 439.81C1707.13 439.81 1705.94 440.143 1705.07 440.808C1704.21 441.474 1703.6 442.185 1703.25 442.94L1700.23 441.861C1700.77 440.601 1701.49 439.621 1702.39 438.919C1703.3 438.208 1704.28 437.714 1705.36 437.435C1706.43 437.147 1707.5 437.003 1708.54 437.003C1709.21 437.003 1709.97 437.084 1710.83 437.246C1711.71 437.399 1712.55 437.718 1713.36 438.204C1714.18 438.69 1714.86 439.423 1715.39 440.403C1715.93 441.384 1716.2 442.697 1716.2 444.344V458H1713.02V455.193H1712.86C1712.64 455.643 1712.28 456.124 1711.78 456.637C1711.27 457.15 1710.6 457.586 1709.77 457.946C1708.93 458.306 1707.91 458.486 1706.7 458.486ZM1707.19 455.625C1708.45 455.625 1709.51 455.378 1710.38 454.883C1711.25 454.388 1711.9 453.749 1712.35 452.967C1712.8 452.184 1713.02 451.361 1713.02 450.497V447.582C1712.89 447.744 1712.59 447.893 1712.13 448.028C1711.68 448.154 1711.16 448.266 1710.56 448.365C1709.98 448.455 1709.41 448.536 1708.85 448.608C1708.3 448.671 1707.86 448.725 1707.51 448.77C1706.69 448.878 1705.91 449.053 1705.19 449.296C1704.48 449.53 1703.91 449.885 1703.47 450.362C1703.03 450.83 1702.82 451.469 1702.82 452.278C1702.82 453.385 1703.23 454.222 1704.05 454.788C1704.87 455.346 1705.92 455.625 1707.19 455.625ZM1722.02 458V437.273H1725.2V458H1722.02ZM1723.64 433.818C1723.02 433.818 1722.48 433.607 1722.03 433.184C1721.59 432.761 1721.37 432.253 1721.37 431.659C1721.37 431.065 1721.59 430.557 1722.03 430.134C1722.48 429.711 1723.02 429.5 1723.64 429.5C1724.26 429.5 1724.79 429.711 1725.23 430.134C1725.68 430.557 1725.9 431.065 1725.9 431.659C1725.9 432.253 1725.68 432.761 1725.23 433.184C1724.79 433.607 1724.26 433.818 1723.64 433.818ZM1740.05 437.273V439.972H1729.31V437.273H1740.05ZM1732.44 432.307H1735.62V452.062C1735.62 452.962 1735.75 453.637 1736.01 454.087C1736.28 454.527 1736.63 454.824 1737.04 454.977C1737.46 455.121 1737.91 455.193 1738.38 455.193C1738.73 455.193 1739.01 455.175 1739.24 455.139C1739.46 455.094 1739.64 455.058 1739.78 455.031L1740.43 457.892C1740.21 457.973 1739.91 458.054 1739.52 458.135C1739.14 458.225 1738.65 458.27 1738.05 458.27C1737.15 458.27 1736.27 458.076 1735.41 457.69C1734.55 457.303 1733.84 456.714 1733.27 455.922C1732.72 455.13 1732.44 454.132 1732.44 452.926V432.307ZM1749 450.227V450.065C1749.01 448.347 1749.19 446.98 1749.54 445.963C1749.88 444.946 1750.36 444.123 1750.99 443.494C1751.62 442.864 1752.38 442.284 1753.26 441.753C1753.79 441.429 1754.27 441.047 1754.69 440.606C1755.11 440.156 1755.45 439.639 1755.69 439.054C1755.94 438.469 1756.07 437.821 1756.07 437.111C1756.07 436.229 1755.86 435.464 1755.45 434.817C1755.03 434.169 1754.48 433.67 1753.79 433.319C1753.09 432.968 1752.32 432.793 1751.48 432.793C1750.74 432.793 1750.03 432.946 1749.35 433.251C1748.66 433.557 1748.09 434.039 1747.63 434.695C1747.17 435.352 1746.91 436.211 1746.84 437.273H1743.44C1743.51 435.743 1743.9 434.434 1744.62 433.346C1745.35 432.257 1746.31 431.425 1747.5 430.849C1748.69 430.274 1750.02 429.986 1751.48 429.986C1753.06 429.986 1754.44 430.301 1755.61 430.93C1756.79 431.56 1757.7 432.424 1758.33 433.521C1758.98 434.619 1759.31 435.869 1759.31 437.273C1759.31 438.262 1759.15 439.157 1758.85 439.958C1758.55 440.759 1758.12 441.474 1757.55 442.104C1756.99 442.733 1756.32 443.291 1755.53 443.777C1754.74 444.272 1754.1 444.794 1753.62 445.342C1753.15 445.882 1752.8 446.525 1752.59 447.272C1752.37 448.019 1752.25 448.95 1752.23 450.065V450.227H1749ZM1750.72 458.216C1750.06 458.216 1749.49 457.978 1749.01 457.501C1748.53 457.024 1748.29 456.453 1748.29 455.787C1748.29 455.121 1748.53 454.55 1749.01 454.073C1749.49 453.596 1750.06 453.358 1750.72 453.358C1751.39 453.358 1751.96 453.596 1752.44 454.073C1752.91 454.55 1753.15 455.121 1753.15 455.787C1753.15 456.228 1753.04 456.633 1752.81 457.001C1752.6 457.37 1752.31 457.667 1751.94 457.892C1751.58 458.108 1751.17 458.216 1750.72 458.216Z" fill="black"/>
<circle cx="1694" cy="1014" r="6" fill="#575757"/>
<circle cx="1726" cy="1014" r="6" fill="#575757"/>
<rect x="1615.5" y="541.5" width="208" height="69" fill="white" stroke="#BEBEBE"/>
<path d="M1526.29 258.293C1525.9 258.683 1525.9 259.317 1526.29 259.707L1532.66 266.071C1533.05 266.462 1533.68 266.462 1534.07 266.071C1534.46 265.681 1534.46 265.047 1534.07 264.657L1528.41 259L1534.07 253.343C1534.46 252.953 1534.46 252.319 1534.07 251.929C1533.68 251.538 1533.05 251.538 1532.66 251.929L1526.29 258.293ZM1528 259V258H1527V259V260H1528V259Z" fill="black"/>
<path d="M1689.27 580.017V578.568L1695.66 568.455H1696.72V570.699H1696.01L1691.18 578.341V578.455H1699.78V580.017H1689.27ZM1696.12 583V579.577V578.902V568.455H1697.79V583H1696.12ZM1707.19 583.199C1706.12 583.199 1705.21 582.908 1704.46 582.325C1703.7 581.738 1703.13 580.888 1702.73 579.776C1702.33 578.658 1702.13 577.309 1702.13 575.727C1702.13 574.155 1702.33 572.813 1702.73 571.7C1703.13 570.583 1703.71 569.731 1704.46 569.143C1705.22 568.552 1706.13 568.256 1707.19 568.256C1708.25 568.256 1709.16 568.552 1709.91 569.143C1710.67 569.731 1711.24 570.583 1711.64 571.7C1712.05 572.813 1712.25 574.155 1712.25 575.727C1712.25 577.309 1712.05 578.658 1711.65 579.776C1711.25 580.888 1710.68 581.738 1709.92 582.325C1709.17 582.908 1708.26 583.199 1707.19 583.199ZM1707.19 581.636C1708.25 581.636 1709.07 581.125 1709.66 580.102C1710.25 579.08 1710.54 577.621 1710.54 575.727C1710.54 574.468 1710.41 573.395 1710.14 572.51C1709.87 571.625 1709.49 570.95 1708.99 570.486C1708.49 570.022 1707.89 569.79 1707.19 569.79C1706.14 569.79 1705.32 570.308 1704.72 571.345C1704.13 572.377 1703.84 573.838 1703.84 575.727C1703.84 576.987 1703.97 578.057 1704.23 578.938C1704.5 579.818 1704.88 580.488 1705.38 580.947C1705.88 581.407 1706.48 581.636 1707.19 581.636ZM1720.6 583V572.091H1722.22V573.795H1722.36C1722.59 573.213 1722.95 572.761 1723.46 572.439C1723.97 572.112 1724.58 571.949 1725.29 571.949C1726.01 571.949 1726.6 572.112 1727.08 572.439C1727.57 572.761 1727.94 573.213 1728.21 573.795H1728.33C1728.61 573.232 1729.02 572.785 1729.58 572.453C1730.14 572.117 1730.81 571.949 1731.59 571.949C1732.57 571.949 1733.37 572.254 1733.99 572.865C1734.61 573.471 1734.92 574.416 1734.92 575.699V583H1733.24V575.699C1733.24 574.894 1733.02 574.319 1732.58 573.973C1732.14 573.627 1731.62 573.455 1731.02 573.455C1730.26 573.455 1729.66 573.687 1729.24 574.151C1728.82 574.61 1728.61 575.192 1728.61 575.898V583H1726.91V575.528C1726.91 574.908 1726.7 574.409 1726.3 574.03C1725.9 573.646 1725.38 573.455 1724.75 573.455C1724.31 573.455 1723.9 573.571 1723.52 573.803C1723.15 574.035 1722.85 574.357 1722.62 574.768C1722.39 575.176 1722.27 575.647 1722.27 576.182V583H1720.6ZM1737.98 583V572.091H1739.66V583H1737.98ZM1738.83 570.273C1738.51 570.273 1738.23 570.161 1737.99 569.939C1737.76 569.716 1737.64 569.449 1737.64 569.136C1737.64 568.824 1737.76 568.556 1737.99 568.334C1738.23 568.111 1738.51 568 1738.83 568C1739.16 568 1739.44 568.111 1739.67 568.334C1739.91 568.556 1740.03 568.824 1740.03 569.136C1740.03 569.449 1739.91 569.716 1739.67 569.939C1739.44 570.161 1739.16 570.273 1738.83 570.273ZM1744.4 576.438V583H1742.73V572.091H1744.35V573.795H1744.49C1744.74 573.241 1745.13 572.796 1745.65 572.46C1746.17 572.119 1746.85 571.949 1747.67 571.949C1748.41 571.949 1749.06 572.1 1749.61 572.403C1750.16 572.702 1750.59 573.156 1750.9 573.767C1751.21 574.373 1751.36 575.14 1751.36 576.068V583H1749.69V576.182C1749.69 575.325 1749.47 574.657 1749.02 574.179C1748.57 573.696 1747.96 573.455 1747.19 573.455C1746.65 573.455 1746.17 573.571 1745.75 573.803C1745.34 574.035 1745.01 574.373 1744.77 574.818C1744.52 575.263 1744.4 575.803 1744.4 576.438Z" fill="black"/>
</g>
<defs>
<filter id="filter0_dd_2095_78" x="-11" y="-7" width="2394" height="77" filterUnits="userSpaceOnUse" color-interpolation-filters="sRGB">
<feFlood flood-opacity="0" result="BackgroundImageFix"/>
<feColorMatrix in="SourceAlpha" type="matrix" values="0 0 0 0 0 0 0 0 0 0 0 0 0 0 0 0 0 0 127 0" result="hardAlpha"/>
<feOffset dy="1"/>
<feGaussianBlur stdDeviation="1.5"/>
<feColorMatrix type="matrix" values="0 0 0 0 0 0 0 0 0 0 0 0 0 0 0 0 0 0 0.3 0"/>
<feBlend mode="normal" in2="BackgroundImageFix" result="effect1_dropShadow_2095_78"/>
<feColorMatrix in="SourceAlpha" type="matrix" values="0 0 0 0 0 0 0 0 0 0 0 0 0 0 0 0 0 0 127 0" result="hardAlpha"/>
<feMorphology radius="3" operator="dilate" in="SourceAlpha" result="effect2_dropShadow_2095_78"/>
<feOffset dy="4"/>
<feGaussianBlur stdDeviation="4"/>
<feColorMatrix type="matrix" values="0 0 0 0 0 0 0 0 0 0 0 0 0 0 0 0 0 0 0.15 0"/>
<feBlend mode="normal" in2="effect1_dropShadow_2095_78" result="effect2_dropShadow_2095_78"/>
<feBlend mode="normal" in="SourceGraphic" in2="effect2_dropShadow_2095_78" result="shape"/>
</filter>
<clipPath id="clip0_2095_78">
<rect width="2372" height="1198" fill="white"/>
</clipPath>
</defs>
</svg>
